%TF.GenerationSoftware,KiCad,Pcbnew,10.0.6*%
%TF.CreationDate,2026-10-03T22:03:46-03:00*%
%TF.ProjectId,keyboard,6b657962-6f61-4726-942e-6b696361645f,rev?*%
%TF.SameCoordinates,Original*%
%TF.FileFunction,Copper,L2,Bot*%
%TF.FilePolarity,Positive*%
%FSLAX46Y46*%
G04 Gerber Fmt 4.6, Leading zero omitted, Abs format (unit mm)*
G04 Created by KiCad (PCBNEW 10.0.6) date 2026-10-03 22:03:46*
%MOMM*%
%LPD*%
G01*
G04 APERTURE LIST*
G04 Aperture macros list*
%AMRoundRect*
0 Rectangle with rounded corners*
0 $1 Rounding radius*
0 $2 $3 $4 $5 $6 $7 $8 $9 X,Y pos of 4 corners*
0 Add a 4 corners polygon primitive as box body*
4,1,4,$2,$3,$4,$5,$6,$7,$8,$9,$2,$3,0*
0 Add four circle primitives for the rounded corners*
1,1,$1+$1,$2,$3*
1,1,$1+$1,$4,$5*
1,1,$1+$1,$6,$7*
1,1,$1+$1,$8,$9*
0 Add four rect primitives between the rounded corners*
20,1,$1+$1,$2,$3,$4,$5,0*
20,1,$1+$1,$4,$5,$6,$7,0*
20,1,$1+$1,$6,$7,$8,$9,0*
20,1,$1+$1,$8,$9,$2,$3,0*%
%AMFreePoly0*
4,1,37,0.603843,0.796157,0.639018,0.796157,0.711114,0.766294,0.766294,0.711114,0.796157,0.639018,0.796157,0.603843,0.800000,0.600000,0.800000,-0.600000,0.796157,-0.603843,0.796157,-0.639018,0.766294,-0.711114,0.711114,-0.766294,0.639018,-0.796157,0.603843,-0.796157,0.600000,-0.800000,0.000000,-0.800000,0.000000,-0.796148,-0.078414,-0.796148,-0.232228,-0.765552,-0.377117,-0.705537,
-0.507515,-0.618408,-0.618408,-0.507515,-0.705537,-0.377117,-0.765552,-0.232228,-0.796148,-0.078414,-0.796148,0.078414,-0.765552,0.232228,-0.705537,0.377117,-0.618408,0.507515,-0.507515,0.618408,-0.377117,0.705537,-0.232228,0.765552,-0.078414,0.796148,0.000000,0.796148,0.000000,0.800000,0.600000,0.800000,0.603843,0.796157,0.603843,0.796157,$1*%
%AMFreePoly1*
4,1,37,0.000000,0.796148,0.078414,0.796148,0.232228,0.765552,0.377117,0.705537,0.507515,0.618408,0.618408,0.507515,0.705537,0.377117,0.765552,0.232228,0.796148,0.078414,0.796148,-0.078414,0.765552,-0.232228,0.705537,-0.377117,0.618408,-0.507515,0.507515,-0.618408,0.377117,-0.705537,0.232228,-0.765552,0.078414,-0.796148,0.000000,-0.796148,0.000000,-0.800000,-0.600000,-0.800000,
-0.603843,-0.796157,-0.639018,-0.796157,-0.711114,-0.766294,-0.766294,-0.711114,-0.796157,-0.639018,-0.796157,-0.603843,-0.800000,-0.600000,-0.800000,0.600000,-0.796157,0.603843,-0.796157,0.639018,-0.766294,0.711114,-0.711114,0.766294,-0.639018,0.796157,-0.603843,0.796157,-0.600000,0.800000,0.000000,0.800000,0.000000,0.796148,0.000000,0.796148,$1*%
G04 Aperture macros list end*
%TA.AperFunction,ComponentPad*%
%ADD10RoundRect,0.250000X0.550000X-0.550000X0.550000X0.550000X-0.550000X0.550000X-0.550000X-0.550000X0*%
%TD*%
%TA.AperFunction,ComponentPad*%
%ADD11C,1.600000*%
%TD*%
%TA.AperFunction,ComponentPad*%
%ADD12C,2.300000*%
%TD*%
%TA.AperFunction,ComponentPad*%
%ADD13RoundRect,0.250000X-0.550000X0.550000X-0.550000X-0.550000X0.550000X-0.550000X0.550000X0.550000X0*%
%TD*%
%TA.AperFunction,ComponentPad*%
%ADD14RoundRect,0.250000X-0.550000X-0.550000X0.550000X-0.550000X0.550000X0.550000X-0.550000X0.550000X0*%
%TD*%
%TA.AperFunction,ComponentPad*%
%ADD15RoundRect,0.200000X-0.600000X-0.600000X0.600000X-0.600000X0.600000X0.600000X-0.600000X0.600000X0*%
%TD*%
%TA.AperFunction,ComponentPad*%
%ADD16FreePoly0,0.000000*%
%TD*%
%TA.AperFunction,ComponentPad*%
%ADD17FreePoly1,0.000000*%
%TD*%
%TA.AperFunction,ComponentPad*%
%ADD18C,4.000000*%
%TD*%
%TA.AperFunction,ViaPad*%
%ADD19C,0.600000*%
%TD*%
%TA.AperFunction,Conductor*%
%ADD20C,0.200000*%
%TD*%
G04 APERTURE END LIST*
D10*
%TO.P,D29,1,K_1*%
%TO.N,LINHA0*%
X149225000Y-50800000D03*
D11*
%TO.P,D29,2,A_2*%
%TO.N,Net-(D29-A)*%
X149225000Y-43180000D03*
%TD*%
D10*
%TO.P,D8,1,K_1*%
%TO.N,LINHA1*%
X50800000Y-69850000D03*
D11*
%TO.P,D8,2,A_2*%
%TO.N,Net-(D8-A)*%
X50800000Y-62230000D03*
%TD*%
D10*
%TO.P,D25,1,K_1*%
%TO.N,LINHA0*%
X130175000Y-50800000D03*
D11*
%TO.P,D25,2,A_2*%
%TO.N,Net-(D25-A)*%
X130175000Y-43180000D03*
%TD*%
D12*
%TO.P,SW65,1,1_1*%
%TO.N,COLUNA11*%
X233045000Y-82550000D03*
%TO.P,SW65,2,2_2*%
%TO.N,Net-(D64-A)*%
X239395000Y-80010000D03*
%TD*%
D10*
%TO.P,D40,1,K_1*%
%TO.N,LINHA0*%
X187960000Y-50800000D03*
D11*
%TO.P,D40,2,A_2*%
%TO.N,Net-(D40-A)*%
X187960000Y-43180000D03*
%TD*%
D12*
%TO.P,SW7,1,1_1*%
%TO.N,COLUNA1*%
X56515000Y-44450000D03*
%TO.P,SW7,2,2_2*%
%TO.N,Net-(D7-A)*%
X62865000Y-41910000D03*
%TD*%
D10*
%TO.P,D50,1,K_1*%
%TO.N,LINHA5*%
X107950000Y-111760000D03*
D11*
%TO.P,D50,2,A_2*%
%TO.N,Net-(D50-A)*%
X107950000Y-104140000D03*
%TD*%
D12*
%TO.P,SW87,1,1_1*%
%TO.N,COLUAN16*%
X351790000Y-82550000D03*
%TO.P,SW87,2,2_2*%
%TO.N,Net-(D86-A)*%
X358140000Y-80010000D03*
%TD*%
D10*
%TO.P,D75,1,K_1*%
%TO.N,LINHA0*%
X327025000Y-51435000D03*
D11*
%TO.P,D75,2,A_2*%
%TO.N,Net-(D75-A)*%
X327025000Y-43815000D03*
%TD*%
D10*
%TO.P,D53,1,K_1*%
%TO.N,LINHA2*%
X208280000Y-88900000D03*
D11*
%TO.P,D53,2,A_2*%
%TO.N,Net-(D53-A)*%
X208280000Y-81280000D03*
%TD*%
D12*
%TO.P,SW88,1,1_1*%
%TO.N,COLUAN14*%
X353060000Y-139700000D03*
%TO.P,SW88,2,2_2*%
%TO.N,Net-(D87-A)*%
X359410000Y-137160000D03*
%TD*%
D10*
%TO.P,D24,1,K_1*%
%TO.N,LINHA2*%
X113030000Y-88900000D03*
D11*
%TO.P,D24,2,A_2*%
%TO.N,Net-(D24-A)*%
X113030000Y-81280000D03*
%TD*%
D12*
%TO.P,SW49,1,1_1*%
%TO.N,COLUNA8*%
X170815000Y-120650000D03*
%TO.P,SW49,2,2_2*%
%TO.N,Net-(D49-A)*%
X177165000Y-118110000D03*
%TD*%
D10*
%TO.P,D80,1,K_1*%
%TO.N,LINHA1*%
X262890000Y-69850000D03*
D11*
%TO.P,D80,2,A_2*%
%TO.N,Net-(D80-A)*%
X262890000Y-62230000D03*
%TD*%
D12*
%TO.P,SW81,1,1_1*%
%TO.N,COLUNA15*%
X332740000Y-63500000D03*
%TO.P,SW81,2,2_2*%
%TO.N,Net-(D80-A)*%
X339090000Y-60960000D03*
%TD*%
%TO.P,SW25,1,1_1*%
%TO.N,COLUNA4*%
X113665000Y-44450000D03*
%TO.P,SW25,2,2_2*%
%TO.N,Net-(D25-A)*%
X120015000Y-41910000D03*
%TD*%
%TO.P,SW58,1,1_1*%
%TO.N,COLUNA10*%
X233045000Y-44450000D03*
%TO.P,SW58,2,2_2*%
%TO.N,Net-(D57-A)*%
X239395000Y-41910000D03*
%TD*%
D10*
%TO.P,D5,1,K_1*%
%TO.N,LINHA4*%
X31750000Y-127000000D03*
D11*
%TO.P,D5,2,A_2*%
%TO.N,Net-(D5-A)*%
X31750000Y-119380000D03*
%TD*%
D10*
%TO.P,D78,1,K_1*%
%TO.N,LINHA5*%
X165100000Y-108585000D03*
D11*
%TO.P,D78,2,A_2*%
%TO.N,Net-(D78-A)*%
X165100000Y-100965000D03*
%TD*%
D10*
%TO.P,D61,1,K_1*%
%TO.N,LINHA5*%
X165100000Y-127000000D03*
D11*
%TO.P,D61,2,A_2*%
%TO.N,Net-(D61-A)*%
X165100000Y-119380000D03*
%TD*%
D12*
%TO.P,SW15,1,1_1*%
%TO.N,COLUNA2*%
X61595000Y-82550000D03*
%TO.P,SW15,2,2_2*%
%TO.N,Net-(D15-A)*%
X67945000Y-80010000D03*
%TD*%
D10*
%TO.P,D87,1,K_1*%
%TO.N,LINHA5*%
X222250000Y-108585000D03*
D11*
%TO.P,D87,2,A_2*%
%TO.N,Net-(D87-A)*%
X222250000Y-100965000D03*
%TD*%
D10*
%TO.P,D79,1,K_1*%
%TO.N,LINHA0*%
X346075000Y-50800000D03*
D11*
%TO.P,D79,2,A_2*%
%TO.N,Net-(D79-A)*%
X346075000Y-43180000D03*
%TD*%
D13*
%TO.P,D4,1,K_1*%
%TO.N,LINHA3*%
X31750000Y-100330000D03*
D11*
%TO.P,D4,2,A_2*%
%TO.N,Net-(D4-A)*%
X31750000Y-107950000D03*
%TD*%
D10*
%TO.P,D83,1,K_1*%
%TO.N,LINHA5*%
X227330000Y-89535000D03*
D11*
%TO.P,D83,2,A_2*%
%TO.N,Net-(D83-A)*%
X227330000Y-81915000D03*
%TD*%
D12*
%TO.P,SW53,1,1_1*%
%TO.N,COLUNA9*%
X194945000Y-82550000D03*
%TO.P,SW53,2,2_2*%
%TO.N,Net-(D53-A)*%
X201295000Y-80010000D03*
%TD*%
%TO.P,SW37,1,1_1*%
%TO.N,COLUNA6*%
X137795000Y-82550000D03*
%TO.P,SW37,2,2_2*%
%TO.N,Net-(D37-A)*%
X144145000Y-80010000D03*
%TD*%
D10*
%TO.P,D47,1,K_1*%
%TO.N,LINHA2*%
X189230000Y-89535000D03*
D11*
%TO.P,D47,2,A_2*%
%TO.N,Net-(D47-A)*%
X189230000Y-81915000D03*
%TD*%
D12*
%TO.P,SW79,1,1_1*%
%TO.N,COLUNA12*%
X314960000Y-139700000D03*
%TO.P,SW79,2,2_2*%
%TO.N,Net-(D78-A)*%
X321310000Y-137160000D03*
%TD*%
%TO.P,SW84,1,1_1*%
%TO.N,COLUNA13*%
X334010000Y-139700000D03*
%TO.P,SW84,2,2_2*%
%TO.N,Net-(D83-A)*%
X340360000Y-137160000D03*
%TD*%
D10*
%TO.P,D57,1,K_1*%
%TO.N,LINHA0*%
X246380000Y-50800000D03*
D11*
%TO.P,D57,2,A_2*%
%TO.N,Net-(D57-A)*%
X246380000Y-43180000D03*
%TD*%
D10*
%TO.P,D60,1,K_1*%
%TO.N,LINHA3*%
X184150000Y-127000000D03*
D11*
%TO.P,D60,2,A_2*%
%TO.N,Net-(D60-A)*%
X184150000Y-119380000D03*
%TD*%
D12*
%TO.P,SW80,1,1_1*%
%TO.N,COLUNA14*%
X332740000Y-44450000D03*
%TO.P,SW80,2,2_2*%
%TO.N,Net-(D79-A)*%
X339090000Y-41910000D03*
%TD*%
D10*
%TO.P,D52,1,K_1*%
%TO.N,LINHA1*%
X203200000Y-69850000D03*
D11*
%TO.P,D52,2,A_2*%
%TO.N,Net-(D52-A)*%
X203200000Y-62230000D03*
%TD*%
D12*
%TO.P,SW45,1,1_1*%
%TO.N,COLUNA8*%
X193040000Y-44450000D03*
%TO.P,SW45,2,2_2*%
%TO.N,Net-(D45-A)*%
X199390000Y-41910000D03*
%TD*%
D10*
%TO.P,D15,1,K_1*%
%TO.N,LINHA2*%
X74930000Y-88900000D03*
D11*
%TO.P,D15,2,A_2*%
%TO.N,Net-(D15-A)*%
X74930000Y-81280000D03*
%TD*%
D12*
%TO.P,SW76,1,1_1*%
%TO.N,COLUNA13*%
X313690000Y-44450000D03*
%TO.P,SW76,2,2_2*%
%TO.N,Net-(D75-A)*%
X320040000Y-41910000D03*
%TD*%
D13*
%TO.P,D63,1,K_1*%
%TO.N,LINHA1*%
X246380000Y-81280000D03*
D11*
%TO.P,D63,2,A_2*%
%TO.N,Net-(D63-A)*%
X246380000Y-88900000D03*
%TD*%
D10*
%TO.P,D76,1,K_1*%
%TO.N,LINHA1*%
X241300000Y-69850000D03*
D11*
%TO.P,D76,2,A_2*%
%TO.N,Net-(D76-A)*%
X241300000Y-62230000D03*
%TD*%
D14*
%TO.P,D65,1,K_1*%
%TO.N,LINHA3*%
X334010000Y-132715000D03*
D11*
%TO.P,D65,2,A_2*%
%TO.N,Net-(D65-A)*%
X341630000Y-132715000D03*
%TD*%
D10*
%TO.P,D46,1,K_1*%
%TO.N,LINHA1*%
X184150000Y-69850000D03*
D11*
%TO.P,D46,2,A_2*%
%TO.N,Net-(D46-A)*%
X184150000Y-62230000D03*
%TD*%
D12*
%TO.P,SW27,1,1_1*%
%TO.N,COLUNA4*%
X94615000Y-101600000D03*
%TO.P,SW27,2,2_2*%
%TO.N,Net-(D27-A)*%
X100965000Y-99060000D03*
%TD*%
%TO.P,SW23,1,1_1*%
%TO.N,COLUNA3*%
X75565000Y-120650000D03*
%TO.P,SW23,2,2_2*%
%TO.N,Net-(D23-A)*%
X81915000Y-118110000D03*
%TD*%
D10*
%TO.P,D32,1,K_1*%
%TO.N,LINHA3*%
X241300000Y-107950000D03*
D11*
%TO.P,D32,2,A_2*%
%TO.N,Net-(D32-A)*%
X241300000Y-100330000D03*
%TD*%
D10*
%TO.P,D1,1,K_1*%
%TO.N,LINHA0*%
X38735000Y-50165000D03*
D11*
%TO.P,D1,2,A_2*%
%TO.N,Net-(D1-A)*%
X38735000Y-42545000D03*
%TD*%
D10*
%TO.P,D44,1,K_1*%
%TO.N,LINHA4*%
X12700000Y-107950000D03*
D11*
%TO.P,D44,2,A_2*%
%TO.N,Net-(D44-A)*%
X12700000Y-100330000D03*
%TD*%
D12*
%TO.P,SW20,1,1_1*%
%TO.N,COLUNA3*%
X75565000Y-63500000D03*
%TO.P,SW20,2,2_2*%
%TO.N,Net-(D20-A)*%
X81915000Y-60960000D03*
%TD*%
D10*
%TO.P,D84,1,K_1*%
%TO.N,LINHA0*%
X365125000Y-51435000D03*
D11*
%TO.P,D84,2,A_2*%
%TO.N,Net-(D84-A)*%
X365125000Y-43815000D03*
%TD*%
D12*
%TO.P,SW40,1,1_1*%
%TO.N,COLUNA7*%
X173990000Y-44450000D03*
%TO.P,SW40,2,2_2*%
%TO.N,Net-(D40-A)*%
X180340000Y-41910000D03*
%TD*%
%TO.P,SW21,1,1_1*%
%TO.N,COLUNA3*%
X80645000Y-82550000D03*
%TO.P,SW21,2,2_2*%
%TO.N,Net-(D21-A)*%
X86995000Y-80010000D03*
%TD*%
%TO.P,SW32,1,1_1*%
%TO.N,COLUNA5*%
X113665000Y-101600000D03*
%TO.P,SW32,2,2_2*%
%TO.N,Net-(D32-A)*%
X120015000Y-99060000D03*
%TD*%
%TO.P,SW50,1,1_1*%
%TO.N,COLUNA8*%
X205105000Y-139700000D03*
%TO.P,SW50,2,2_2*%
%TO.N,Net-(D50-A)*%
X211455000Y-137160000D03*
%TD*%
D10*
%TO.P,D31,1,K_1*%
%TO.N,LINHA2*%
X132080000Y-88900000D03*
D11*
%TO.P,D31,2,A_2*%
%TO.N,Net-(D31-A)*%
X132080000Y-81280000D03*
%TD*%
D10*
%TO.P,D67,1,K_1*%
%TO.N,LINHA5*%
X222250000Y-127000000D03*
D11*
%TO.P,D67,2,A_2*%
%TO.N,Net-(D67-A)*%
X222250000Y-119380000D03*
%TD*%
D10*
%TO.P,D10,1,K_1*%
%TO.N,LINHA3*%
X50800000Y-107950000D03*
D11*
%TO.P,D10,2,A_2*%
%TO.N,Net-(D10-A)*%
X50800000Y-100330000D03*
%TD*%
D10*
%TO.P,D43,1,K_1*%
%TO.N,LINHA3*%
X17780000Y-88900000D03*
D11*
%TO.P,D43,2,A_2*%
%TO.N,Net-(D43-A)*%
X17780000Y-81280000D03*
%TD*%
D10*
%TO.P,D41,1,K_1*%
%TO.N,LINHA1*%
X165100000Y-69850000D03*
D11*
%TO.P,D41,2,A_2*%
%TO.N,Net-(D41-A)*%
X165100000Y-62230000D03*
%TD*%
D12*
%TO.P,SW42,1,1_1*%
%TO.N,COLUNA7*%
X156845000Y-82550000D03*
%TO.P,SW42,2,2_2*%
%TO.N,Net-(D42-A)*%
X163195000Y-80010000D03*
%TD*%
%TO.P,SW10,1,1_1*%
%TO.N,COLUNA1*%
X37465000Y-101600000D03*
%TO.P,SW10,2,2_2*%
%TO.N,Net-(D10-A)*%
X43815000Y-99060000D03*
%TD*%
D10*
%TO.P,D66,1,K_1*%
%TO.N,LINHA4*%
X146685000Y-127000000D03*
D11*
%TO.P,D66,2,A_2*%
%TO.N,Net-(D66-A)*%
X146685000Y-119380000D03*
%TD*%
D12*
%TO.P,SW41,1,1_1*%
%TO.N,COLUNA7*%
X151765000Y-63500000D03*
%TO.P,SW41,2,2_2*%
%TO.N,Net-(D41-A)*%
X158115000Y-60960000D03*
%TD*%
D10*
%TO.P,D51,1,K_1*%
%TO.N,LINHA0*%
X227330000Y-50800000D03*
D11*
%TO.P,D51,2,A_2*%
%TO.N,Net-(D51-A)*%
X227330000Y-43180000D03*
%TD*%
D12*
%TO.P,SW34,1,1_1*%
%TO.N,COLUNA5*%
X131445000Y-139065000D03*
%TO.P,SW34,2,2_2*%
%TO.N,Net-(D34-A)*%
X137795000Y-136525000D03*
%TD*%
%TO.P,SW77,1,1_1*%
%TO.N,COLUNA14*%
X313690000Y-63500000D03*
%TO.P,SW77,2,2_2*%
%TO.N,Net-(D76-A)*%
X320040000Y-60960000D03*
%TD*%
D10*
%TO.P,D6,1,K_1*%
%TO.N,LINHA5*%
X31750000Y-146050000D03*
D11*
%TO.P,D6,2,A_2*%
%TO.N,Net-(D6-A)*%
X31750000Y-138430000D03*
%TD*%
D10*
%TO.P,D36,1,K_1*%
%TO.N,LINHA1*%
X146050000Y-69850000D03*
D11*
%TO.P,D36,2,A_2*%
%TO.N,Net-(D36-A)*%
X146050000Y-62230000D03*
%TD*%
D10*
%TO.P,D28,1,K_1*%
%TO.N,LINHA4*%
X203200000Y-107950000D03*
D11*
%TO.P,D28,2,A_2*%
%TO.N,Net-(D28-A)*%
X203200000Y-100330000D03*
%TD*%
D12*
%TO.P,SW19,1,1_1*%
%TO.N,COLUNA3*%
X94615000Y-44450000D03*
%TO.P,SW19,2,2_2*%
%TO.N,Net-(D19-A)*%
X100965000Y-41910000D03*
%TD*%
%TO.P,SW2,1,1_1*%
%TO.N,COLUNA0*%
X18415000Y-63500000D03*
%TO.P,SW2,2,2_2*%
%TO.N,Net-(D2-A)*%
X24765000Y-60960000D03*
%TD*%
%TO.P,SW13,1,1_1*%
%TO.N,COLUNA2*%
X75565000Y-44450000D03*
%TO.P,SW13,2,2_2*%
%TO.N,Net-(D13-A)*%
X81915000Y-41910000D03*
%TD*%
D10*
%TO.P,D19,1,K_1*%
%TO.N,LINHA0*%
X107950000Y-50800000D03*
D11*
%TO.P,D19,2,A_2*%
%TO.N,Net-(D19-A)*%
X107950000Y-43180000D03*
%TD*%
D10*
%TO.P,D2,1,K_1*%
%TO.N,LINHA1*%
X31750000Y-69850000D03*
D11*
%TO.P,D2,2,A_2*%
%TO.N,Net-(D2-A)*%
X31750000Y-62230000D03*
%TD*%
D12*
%TO.P,SW59,1,1_1*%
%TO.N,COLUNA10*%
X208915000Y-63500000D03*
%TO.P,SW59,2,2_2*%
%TO.N,Net-(D58-A)*%
X215265000Y-60960000D03*
%TD*%
%TO.P,SW29,1,1_1*%
%TO.N,COLUNA5*%
X135890000Y-44450000D03*
%TO.P,SW29,2,2_2*%
%TO.N,Net-(D29-A)*%
X142240000Y-41910000D03*
%TD*%
D10*
%TO.P,D33,1,K_1*%
%TO.N,LINHA4*%
X127000000Y-108585000D03*
D11*
%TO.P,D33,2,A_2*%
%TO.N,Net-(D33-A)*%
X127000000Y-100965000D03*
%TD*%
D10*
%TO.P,D85,1,K_1*%
%TO.N,LINHA1*%
X281940000Y-69850000D03*
D11*
%TO.P,D85,2,A_2*%
%TO.N,Net-(D85-A)*%
X281940000Y-62230000D03*
%TD*%
D12*
%TO.P,SW86,1,1_1*%
%TO.N,COLUAN16*%
X351790000Y-63500000D03*
%TO.P,SW86,2,2_2*%
%TO.N,Net-(D85-A)*%
X358140000Y-60960000D03*
%TD*%
%TO.P,SW55,1,1_1*%
%TO.N,COLUNA9*%
X189865000Y-120650000D03*
%TO.P,SW55,2,2_2*%
%TO.N,Net-(D55-A)*%
X196215000Y-118110000D03*
%TD*%
%TO.P,SW78,1,1_1*%
%TO.N,COLUNA14*%
X313690000Y-82550000D03*
%TO.P,SW78,2,2_2*%
%TO.N,Net-(D77-A)*%
X320040000Y-80010000D03*
%TD*%
D10*
%TO.P,D21,1,K_1*%
%TO.N,LINHA2*%
X93980000Y-88900000D03*
D11*
%TO.P,D21,2,A_2*%
%TO.N,Net-(D21-A)*%
X93980000Y-81280000D03*
%TD*%
D12*
%TO.P,SW46,1,1_1*%
%TO.N,COLUNA8*%
X170815000Y-63500000D03*
%TO.P,SW46,2,2_2*%
%TO.N,Net-(D46-A)*%
X177165000Y-60960000D03*
%TD*%
D10*
%TO.P,D20,1,K_1*%
%TO.N,LINHA1*%
X88900000Y-69850000D03*
D11*
%TO.P,D20,2,A_2*%
%TO.N,Net-(D20-A)*%
X88900000Y-62230000D03*
%TD*%
D12*
%TO.P,SW51,1,1_1*%
%TO.N,COLUNA9*%
X213995000Y-44450000D03*
%TO.P,SW51,2,2_2*%
%TO.N,Net-(D51-A)*%
X220345000Y-41910000D03*
%TD*%
%TO.P,SW54,1,1_1*%
%TO.N,COLUNA9*%
X189865000Y-101600000D03*
%TO.P,SW54,2,2_2*%
%TO.N,Net-(D54-A)*%
X196215000Y-99060000D03*
%TD*%
%TO.P,SW44,1,1_1*%
%TO.N,COLUNA7*%
X151765000Y-120650000D03*
%TO.P,SW44,2,2_2*%
%TO.N,Net-(D44-A)*%
X158115000Y-118110000D03*
%TD*%
D10*
%TO.P,D16,1,K_1*%
%TO.N,LINHA3*%
X69850000Y-127000000D03*
D11*
%TO.P,D16,2,A_2*%
%TO.N,Net-(D16-A)*%
X69850000Y-119380000D03*
%TD*%
D12*
%TO.P,SW63,1,1_1*%
%TO.N,COLUNA11*%
X252095000Y-44450000D03*
%TO.P,SW63,2,2_2*%
%TO.N,Net-(D62-A)*%
X258445000Y-41910000D03*
%TD*%
%TO.P,SW66,1,1_1*%
%TO.N,COLUNA11*%
X227965000Y-101600000D03*
%TO.P,SW66,2,2_2*%
%TO.N,Net-(D65-A)*%
X234315000Y-99060000D03*
%TD*%
%TO.P,SW48,1,1_1*%
%TO.N,COLUNA8*%
X170815000Y-101600000D03*
%TO.P,SW48,2,2_2*%
%TO.N,Net-(D48-A)*%
X177165000Y-99060000D03*
%TD*%
%TO.P,SW4,1,1_1*%
%TO.N,COLUNA0*%
X18415000Y-101600000D03*
%TO.P,SW4,2,2_2*%
%TO.N,Net-(D4-A)*%
X24765000Y-99060000D03*
%TD*%
%TO.P,SW1,1,1_1*%
%TO.N,COLUNA0*%
X18415000Y-44450000D03*
%TO.P,SW1,2,2_2*%
%TO.N,Net-(D1-A)*%
X24765000Y-41910000D03*
%TD*%
%TO.P,SW69,1,1_1*%
%TO.N,COLUNA12*%
X271145000Y-44450000D03*
%TO.P,SW69,2,2_2*%
%TO.N,Net-(D68-A)*%
X277495000Y-41910000D03*
%TD*%
D10*
%TO.P,D23,1,K_1*%
%TO.N,LINHA4*%
X88900000Y-106680000D03*
D11*
%TO.P,D23,2,A_2*%
%TO.N,Net-(D23-A)*%
X88900000Y-99060000D03*
%TD*%
D10*
%TO.P,D3,1,K_1*%
%TO.N,LINHA2*%
X37465000Y-88900000D03*
D11*
%TO.P,D3,2,A_2*%
%TO.N,Net-(D3-A)*%
X37465000Y-81280000D03*
%TD*%
D12*
%TO.P,SW75,1,1_1*%
%TO.N,COLUNA13*%
X271145000Y-90805000D03*
%TO.P,SW75,2,2_2*%
%TO.N,Net-(D74-A)*%
X277495000Y-88265000D03*
%TD*%
%TO.P,SW9,1,1_1*%
%TO.N,COLUNA1*%
X42545000Y-82550000D03*
%TO.P,SW9,2,2_2*%
%TO.N,Net-(D9-A)*%
X48895000Y-80010000D03*
%TD*%
%TO.P,SW33,1,1_1*%
%TO.N,COLUNA5*%
X113665000Y-120650000D03*
%TO.P,SW33,2,2_2*%
%TO.N,Net-(D33-A)*%
X120015000Y-118110000D03*
%TD*%
%TO.P,SW52,1,1_1*%
%TO.N,COLUNA9*%
X189865000Y-63500000D03*
%TO.P,SW52,2,2_2*%
%TO.N,Net-(D52-A)*%
X196215000Y-60960000D03*
%TD*%
%TO.P,SW6,1,1_1*%
%TO.N,COLUNA0*%
X18415000Y-139700000D03*
%TO.P,SW6,2,2_2*%
%TO.N,Net-(D6-A)*%
X24765000Y-137160000D03*
%TD*%
D10*
%TO.P,D64,1,K_1*%
%TO.N,LINHA2*%
X256540000Y-127000000D03*
D11*
%TO.P,D64,2,A_2*%
%TO.N,Net-(D64-A)*%
X256540000Y-119380000D03*
%TD*%
D12*
%TO.P,SW70,1,1_1*%
%TO.N,COLUNA12*%
X247015000Y-63500000D03*
%TO.P,SW70,2,2_2*%
%TO.N,Net-(D69-A)*%
X253365000Y-60960000D03*
%TD*%
D10*
%TO.P,D9,1,K_1*%
%TO.N,LINHA2*%
X55880000Y-88900000D03*
D11*
%TO.P,D9,2,A_2*%
%TO.N,Net-(D9-A)*%
X55880000Y-81280000D03*
%TD*%
D10*
%TO.P,D55,1,K_1*%
%TO.N,LINHA4*%
X107950000Y-127000000D03*
D11*
%TO.P,D55,2,A_2*%
%TO.N,Net-(D55-A)*%
X107950000Y-119380000D03*
%TD*%
D12*
%TO.P,SW67,1,1_1*%
%TO.N,COLUNA11*%
X227965000Y-120650000D03*
%TO.P,SW67,2,2_2*%
%TO.N,Net-(D66-A)*%
X234315000Y-118110000D03*
%TD*%
D10*
%TO.P,D30,1,K_1*%
%TO.N,LINHA1*%
X127000000Y-69850000D03*
D11*
%TO.P,D30,2,A_2*%
%TO.N,Net-(D30-A)*%
X127000000Y-62230000D03*
%TD*%
D12*
%TO.P,SW12,1,1_1*%
%TO.N,COLUNA1*%
X37465000Y-139700000D03*
%TO.P,SW12,2,2_2*%
%TO.N,Net-(D12-A)*%
X43815000Y-137160000D03*
%TD*%
D10*
%TO.P,D49,1,K_1*%
%TO.N,LINHA4*%
X12700000Y-69850000D03*
D11*
%TO.P,D49,2,A_2*%
%TO.N,Net-(D49-A)*%
X12700000Y-62230000D03*
%TD*%
D10*
%TO.P,D70,1,K_1*%
%TO.N,LINHA2*%
X328930000Y-146685000D03*
D11*
%TO.P,D70,2,A_2*%
%TO.N,Net-(D70-A)*%
X328930000Y-139065000D03*
%TD*%
D10*
%TO.P,D35,1,K_1*%
%TO.N,LINHA0*%
X168275000Y-50800000D03*
D11*
%TO.P,D35,2,A_2*%
%TO.N,Net-(D35-A)*%
X168275000Y-43180000D03*
%TD*%
D12*
%TO.P,SW85,1,1_1*%
%TO.N,COLUAN15*%
X351790000Y-44450000D03*
%TO.P,SW85,2,2_2*%
%TO.N,Net-(D84-A)*%
X358140000Y-41910000D03*
%TD*%
%TO.P,SW26,1,1_1*%
%TO.N,COLUNA4*%
X94615000Y-63500000D03*
%TO.P,SW26,2,2_2*%
%TO.N,Net-(D26-A)*%
X100965000Y-60960000D03*
%TD*%
%TO.P,SW18,1,1_1*%
%TO.N,COLUNA2*%
X56515000Y-139700000D03*
%TO.P,SW18,2,2_2*%
%TO.N,Net-(D18-A)*%
X62865000Y-137160000D03*
%TD*%
D10*
%TO.P,D74,1,K_1*%
%TO.N,LINHA2*%
X347980000Y-146685000D03*
D11*
%TO.P,D74,2,A_2*%
%TO.N,Net-(D74-A)*%
X347980000Y-139065000D03*
%TD*%
D12*
%TO.P,SW43,1,1_1*%
%TO.N,COLUNA7*%
X151765000Y-101600000D03*
%TO.P,SW43,2,2_2*%
%TO.N,Net-(D43-A)*%
X158115000Y-99060000D03*
%TD*%
%TO.P,SW61,1,1_1*%
%TO.N,COLUNA10*%
X208915000Y-101600000D03*
%TO.P,SW61,2,2_2*%
%TO.N,Net-(D60-A)*%
X215265000Y-99060000D03*
%TD*%
D10*
%TO.P,D18,1,K_1*%
%TO.N,LINHA5*%
X69850000Y-107950000D03*
D11*
%TO.P,D18,2,A_2*%
%TO.N,Net-(D18-A)*%
X69850000Y-100330000D03*
%TD*%
D12*
%TO.P,SW73,1,1_1*%
%TO.N,COLUNA12*%
X262255000Y-120650000D03*
%TO.P,SW73,2,2_2*%
%TO.N,Net-(D72-A)*%
X268605000Y-118110000D03*
%TD*%
%TO.P,SW36,1,1_1*%
%TO.N,COLUNA6*%
X132715000Y-63500000D03*
%TO.P,SW36,2,2_2*%
%TO.N,Net-(D36-A)*%
X139065000Y-60960000D03*
%TD*%
%TO.P,SW47,1,1_1*%
%TO.N,COLUNA8*%
X175895000Y-82550000D03*
%TO.P,SW47,2,2_2*%
%TO.N,Net-(D47-A)*%
X182245000Y-80010000D03*
%TD*%
%TO.P,SW28,1,1_1*%
%TO.N,COLUNA4*%
X94615000Y-120650000D03*
%TO.P,SW28,2,2_2*%
%TO.N,Net-(D28-A)*%
X100965000Y-118110000D03*
%TD*%
%TO.P,SW5,1,1_1*%
%TO.N,COLUNA0*%
X18415000Y-120650000D03*
%TO.P,SW5,2,2_2*%
%TO.N,Net-(D5-A)*%
X24765000Y-118110000D03*
%TD*%
D10*
%TO.P,D26,1,K_1*%
%TO.N,LINHA1*%
X107950000Y-69850000D03*
D11*
%TO.P,D26,2,A_2*%
%TO.N,Net-(D26-A)*%
X107950000Y-62230000D03*
%TD*%
D12*
%TO.P,SW11,1,1_1*%
%TO.N,COLUNA1*%
X37465000Y-120650000D03*
%TO.P,SW11,2,2_2*%
%TO.N,Net-(D11-A)*%
X43815000Y-118110000D03*
%TD*%
%TO.P,SW57,1,1_1*%
%TO.N,COLUNA10*%
X208915000Y-120650000D03*
%TO.P,SW57,2,2_2*%
%TO.N,LINHA4*%
X215265000Y-118110000D03*
%TD*%
%TO.P,SW68,1,1_1*%
%TO.N,COLUNA11*%
X262255000Y-139700000D03*
%TO.P,SW68,2,2_2*%
%TO.N,Net-(D67-A)*%
X268605000Y-137160000D03*
%TD*%
D10*
%TO.P,D7,1,K_1*%
%TO.N,LINHA0*%
X69850000Y-50800000D03*
D11*
%TO.P,D7,2,A_2*%
%TO.N,Net-(D7-A)*%
X69850000Y-43180000D03*
%TD*%
D12*
%TO.P,SW24,1,1_1*%
%TO.N,COLUNA4*%
X99695000Y-82550000D03*
%TO.P,SW24,2,2_2*%
%TO.N,Net-(D24-A)*%
X106045000Y-80010000D03*
%TD*%
D10*
%TO.P,D48,1,K_1*%
%TO.N,LINHA3*%
X284480000Y-99695000D03*
D11*
%TO.P,D48,2,A_2*%
%TO.N,Net-(D48-A)*%
X284480000Y-92075000D03*
%TD*%
D12*
%TO.P,SW64,1,1_1*%
%TO.N,COLUNA11*%
X227965000Y-63500000D03*
%TO.P,SW64,2,2_2*%
%TO.N,Net-(D63-A)*%
X234315000Y-60960000D03*
%TD*%
D10*
%TO.P,D72,1,K_1*%
%TO.N,LINHA4*%
X237490000Y-142240000D03*
D11*
%TO.P,D72,2,A_2*%
%TO.N,Net-(D72-A)*%
X237490000Y-134620000D03*
%TD*%
D10*
%TO.P,D59,1,K_1*%
%TO.N,LINHA2*%
X241300000Y-127000000D03*
D11*
%TO.P,D59,2,A_2*%
%TO.N,Net-(D59-A)*%
X241300000Y-119380000D03*
%TD*%
D12*
%TO.P,SW74,1,1_1*%
%TO.N,COLUNA13*%
X268605000Y-63500000D03*
%TO.P,SW74,2,2_2*%
%TO.N,Net-(D73-A)*%
X274955000Y-60960000D03*
%TD*%
D10*
%TO.P,D45,1,K_1*%
%TO.N,LINHA0*%
X206375000Y-50800000D03*
D11*
%TO.P,D45,2,A_2*%
%TO.N,Net-(D45-A)*%
X206375000Y-43180000D03*
%TD*%
D10*
%TO.P,D58,1,K_1*%
%TO.N,LINHA1*%
X222250000Y-69850000D03*
D11*
%TO.P,D58,2,A_2*%
%TO.N,Net-(D58-A)*%
X222250000Y-62230000D03*
%TD*%
D12*
%TO.P,SW35,1,1_1*%
%TO.N,COLUNA6*%
X154940000Y-44450000D03*
%TO.P,SW35,2,2_2*%
%TO.N,Net-(D35-A)*%
X161290000Y-41910000D03*
%TD*%
D10*
%TO.P,D86,1,K_1*%
%TO.N,LINHA2*%
X365125000Y-88900000D03*
D11*
%TO.P,D86,2,A_2*%
%TO.N,Net-(D86-A)*%
X365125000Y-81280000D03*
%TD*%
D10*
%TO.P,D54,1,K_1*%
%TO.N,LINHA3*%
X144780000Y-146050000D03*
D11*
%TO.P,D54,2,A_2*%
%TO.N,Net-(D54-A)*%
X144780000Y-138430000D03*
%TD*%
D12*
%TO.P,SW22,1,1_1*%
%TO.N,COLUNA3*%
X75565000Y-101600000D03*
%TO.P,SW22,2,2_2*%
%TO.N,Net-(D22-A)*%
X81915000Y-99060000D03*
%TD*%
D10*
%TO.P,D82,1,K_1*%
%TO.N,LINHA4*%
X146050000Y-107950000D03*
D11*
%TO.P,D82,2,A_2*%
%TO.N,Net-(D82-A)*%
X146050000Y-100330000D03*
%TD*%
D15*
%TO.P,A1,1,GPIO0_1*%
%TO.N,COLUNA0*%
X287020000Y-38887500D03*
D11*
%TO.P,A1,2,GPIO1_2*%
%TO.N,COLUNA1*%
X287020000Y-41427500D03*
D16*
%TO.P,A1,3,GND_3*%
%TO.N,unconnected-(A1-GND-Pad13)_3*%
X287020000Y-43967500D03*
D11*
%TO.P,A1,4,GPIO2_4*%
%TO.N,COLUNA2*%
X287020000Y-46507500D03*
%TO.P,A1,5,GPIO3_5*%
%TO.N,COLUNA3*%
X287020000Y-49047500D03*
%TO.P,A1,6,GPIO4_6*%
%TO.N,COLUNA4*%
X287020000Y-51587500D03*
%TO.P,A1,7,GPIO5_7*%
%TO.N,COLUNA5*%
X287020000Y-54127500D03*
D16*
%TO.P,A1,8,GND_8*%
%TO.N,unconnected-(A1-GND-Pad13)_5*%
X287020000Y-56667500D03*
D11*
%TO.P,A1,9,GPIO6_9*%
%TO.N,COLUNA6*%
X287020000Y-59207500D03*
%TO.P,A1,10,GPIO7_10*%
%TO.N,COLUNA7*%
X287020000Y-61747500D03*
%TO.P,A1,11,GPIO8_11*%
%TO.N,COLUNA8*%
X287020000Y-64287500D03*
%TO.P,A1,12,GPIO9_12*%
%TO.N,COLUNA9*%
X287020000Y-66827500D03*
D16*
%TO.P,A1,13,GND_13*%
%TO.N,unconnected-(A1-GND-Pad13)*%
X287020000Y-69367500D03*
D11*
%TO.P,A1,14,GPIO10_14*%
%TO.N,COLUNA10*%
X287020000Y-71907500D03*
%TO.P,A1,15,GPIO11_15*%
%TO.N,COLUNA11*%
X287020000Y-74447500D03*
%TO.P,A1,16,GPIO12_16*%
%TO.N,COLUNA12*%
X287020000Y-76987500D03*
%TO.P,A1,17,GPIO13_17*%
%TO.N,COLUNA13*%
X287020000Y-79527500D03*
D16*
%TO.P,A1,18,GND_18*%
%TO.N,unconnected-(A1-GND-Pad13)_2*%
X287020000Y-82067500D03*
D11*
%TO.P,A1,19,GPIO14_19*%
%TO.N,COLUAN14*%
X287020000Y-84607500D03*
%TO.P,A1,20,GPIO15_20*%
%TO.N,COLUAN15*%
X287020000Y-87147500D03*
%TO.P,A1,21,GPIO16_21*%
%TO.N,LINHA0*%
X304800000Y-87147500D03*
%TO.P,A1,22,GPIO17_22*%
%TO.N,LINHA1*%
X304800000Y-84607500D03*
D17*
%TO.P,A1,23,GND_23*%
%TO.N,unconnected-(A1-GND-Pad13)_6*%
X304800000Y-82067500D03*
D11*
%TO.P,A1,24,GPIO18_24*%
%TO.N,LINHA2*%
X304800000Y-79527500D03*
%TO.P,A1,25,GPIO19_25*%
%TO.N,LINHA3*%
X304800000Y-76987500D03*
%TO.P,A1,26,GPIO20_26*%
%TO.N,LINHA4*%
X304800000Y-74447500D03*
%TO.P,A1,27,GPIO21_27*%
%TO.N,LINHA5*%
X304800000Y-71907500D03*
D17*
%TO.P,A1,28,GND_28*%
%TO.N,unconnected-(A1-GND-Pad13)_4*%
X304800000Y-69367500D03*
D11*
%TO.P,A1,29,GPIO22_29*%
%TO.N,COLUAN16*%
X304800000Y-66827500D03*
%TO.P,A1,30,RUN_30*%
%TO.N,unconnected-(A1-RUN-Pad30)*%
X304800000Y-64287500D03*
%TO.P,A1,31,GPIO26_ADC0_31*%
%TO.N,unconnected-(A1-GPIO26_ADC0-Pad31)*%
X304800000Y-61747500D03*
%TO.P,A1,32,GPIO27_ADC1_32*%
%TO.N,unconnected-(A1-GPIO27_ADC1-Pad32)*%
X304800000Y-59207500D03*
D17*
%TO.P,A1,33,AGND_33*%
%TO.N,unconnected-(A1-AGND-Pad33)*%
X304800000Y-56667500D03*
D11*
%TO.P,A1,34,GPIO28_ADC2_34*%
%TO.N,unconnected-(A1-GPIO28_ADC2-Pad34)*%
X304800000Y-54127500D03*
%TO.P,A1,35,ADC_VREF_35*%
%TO.N,unconnected-(A1-ADC_VREF-Pad35)*%
X304800000Y-51587500D03*
%TO.P,A1,36,3V3_36*%
%TO.N,unconnected-(A1-3V3-Pad36)*%
X304800000Y-49047500D03*
%TO.P,A1,37,3V3_EN_37*%
%TO.N,unconnected-(A1-3V3_EN-Pad37)*%
X304800000Y-46507500D03*
D17*
%TO.P,A1,38,GND_38*%
%TO.N,unconnected-(A1-GND-Pad13)_1*%
X304800000Y-43967500D03*
D11*
%TO.P,A1,39,VSYS_39*%
%TO.N,unconnected-(A1-VSYS-Pad39)*%
X304800000Y-41427500D03*
%TO.P,A1,40,VBUS_40*%
%TO.N,unconnected-(A1-VBUS-Pad40)*%
X304800000Y-38887500D03*
%TD*%
D10*
%TO.P,D56,1,K_1*%
%TO.N,LINHA5*%
X218440000Y-144145000D03*
D11*
%TO.P,D56,2,A_2*%
%TO.N,Net-(D56-A)*%
X218440000Y-136525000D03*
%TD*%
D10*
%TO.P,D12,1,K_1*%
%TO.N,LINHA5*%
X50800000Y-145415000D03*
D11*
%TO.P,D12,2,A_2*%
%TO.N,Net-(D12-A)*%
X50800000Y-137795000D03*
%TD*%
D12*
%TO.P,SW3,1,1_1*%
%TO.N,COLUNA0*%
X23495000Y-82550000D03*
%TO.P,SW3,2,2_2*%
%TO.N,Net-(D3-A)*%
X29845000Y-80010000D03*
%TD*%
%TO.P,SW62,1,1_1*%
%TO.N,COLUNA10*%
X243205000Y-139700000D03*
%TO.P,SW62,2,2_2*%
%TO.N,Net-(D61-A)*%
X249555000Y-137160000D03*
%TD*%
%TO.P,SW16,1,1_1*%
%TO.N,COLUNA2*%
X56515000Y-101600000D03*
%TO.P,SW16,2,2_2*%
%TO.N,Net-(D16-A)*%
X62865000Y-99060000D03*
%TD*%
D10*
%TO.P,D17,1,K_1*%
%TO.N,LINHA4*%
X88900000Y-127000000D03*
D11*
%TO.P,D17,2,A_2*%
%TO.N,Net-(D17-A)*%
X88900000Y-119380000D03*
%TD*%
D10*
%TO.P,D42,1,K_1*%
%TO.N,LINHA2*%
X170180000Y-88900000D03*
D11*
%TO.P,D42,2,A_2*%
%TO.N,Net-(D42-A)*%
X170180000Y-81280000D03*
%TD*%
D10*
%TO.P,D14,1,K_1*%
%TO.N,LINHA1*%
X69850000Y-69850000D03*
D11*
%TO.P,D14,2,A_2*%
%TO.N,Net-(D14-A)*%
X69850000Y-62230000D03*
%TD*%
D10*
%TO.P,D34,1,K_1*%
%TO.N,LINHA5*%
X327025000Y-69850000D03*
D11*
%TO.P,D34,2,A_2*%
%TO.N,Net-(D34-A)*%
X327025000Y-62230000D03*
%TD*%
D12*
%TO.P,SW60,1,1_1*%
%TO.N,COLUNA10*%
X213995000Y-82550000D03*
%TO.P,SW60,2,2_2*%
%TO.N,Net-(D59-A)*%
X220345000Y-80010000D03*
%TD*%
%TO.P,SW17,1,1_1*%
%TO.N,COLUNA2*%
X56515000Y-120650000D03*
%TO.P,SW17,2,2_2*%
%TO.N,Net-(D17-A)*%
X62865000Y-118110000D03*
%TD*%
D10*
%TO.P,D27,1,K_1*%
%TO.N,LINHA3*%
X203200000Y-126365000D03*
D11*
%TO.P,D27,2,A_2*%
%TO.N,Net-(D27-A)*%
X203200000Y-118745000D03*
%TD*%
D10*
%TO.P,D77,1,K_1*%
%TO.N,LINHA2*%
X327025000Y-88900000D03*
D11*
%TO.P,D77,2,A_2*%
%TO.N,Net-(D77-A)*%
X327025000Y-81280000D03*
%TD*%
D12*
%TO.P,SW8,1,1_1*%
%TO.N,COLUNA1*%
X37465000Y-63500000D03*
%TO.P,SW8,2,2_2*%
%TO.N,Net-(D8-A)*%
X43815000Y-60960000D03*
%TD*%
%TO.P,SW82,1,1_1*%
%TO.N,COLUNA15*%
X332740000Y-82550000D03*
%TO.P,SW82,2,2_2*%
%TO.N,Net-(D81-A)*%
X339090000Y-80010000D03*
%TD*%
%TO.P,SW72,1,1_1*%
%TO.N,COLUNA12*%
X247015000Y-101600000D03*
%TO.P,SW72,2,2_2*%
%TO.N,Net-(D71-A)*%
X253365000Y-99060000D03*
%TD*%
%TO.P,SW38,1,1_1*%
%TO.N,COLUNA6*%
X132715000Y-101600000D03*
%TO.P,SW38,2,2_2*%
%TO.N,Net-(D38-A)*%
X139065000Y-99060000D03*
%TD*%
%TO.P,SW14,1,1_1*%
%TO.N,COLUNA2*%
X56515000Y-63500000D03*
%TO.P,SW14,2,2_2*%
%TO.N,Net-(D14-A)*%
X62865000Y-60960000D03*
%TD*%
%TO.P,SW30,1,1_1*%
%TO.N,COLUNA5*%
X113665000Y-63500000D03*
%TO.P,SW30,2,2_2*%
%TO.N,Net-(D30-A)*%
X120015000Y-60960000D03*
%TD*%
D10*
%TO.P,D81,1,K_1*%
%TO.N,LINHA2*%
X346075000Y-88900000D03*
D11*
%TO.P,D81,2,A_2*%
%TO.N,Net-(D81-A)*%
X346075000Y-81280000D03*
%TD*%
D10*
%TO.P,D38,1,K_1*%
%TO.N,LINHA3*%
X12700000Y-127000000D03*
D11*
%TO.P,D38,2,A_2*%
%TO.N,Net-(D38-A)*%
X12700000Y-119380000D03*
%TD*%
D12*
%TO.P,SW39,1,1_1*%
%TO.N,COLUNA6*%
X132715000Y-120650000D03*
%TO.P,SW39,2,2_2*%
%TO.N,Net-(D39-A)*%
X139065000Y-118110000D03*
%TD*%
D10*
%TO.P,D69,1,K_1*%
%TO.N,LINHA1*%
X260985000Y-107950000D03*
D11*
%TO.P,D69,2,A_2*%
%TO.N,Net-(D69-A)*%
X260985000Y-100330000D03*
%TD*%
D10*
%TO.P,D13,1,K_1*%
%TO.N,LINHA0*%
X88900000Y-50800000D03*
D11*
%TO.P,D13,2,A_2*%
%TO.N,Net-(D13-A)*%
X88900000Y-43180000D03*
%TD*%
D10*
%TO.P,D39,1,K_1*%
%TO.N,LINHA4*%
X13335000Y-146050000D03*
D11*
%TO.P,D39,2,A_2*%
%TO.N,Net-(D39-A)*%
X13335000Y-138430000D03*
%TD*%
D12*
%TO.P,SW71,1,1_1*%
%TO.N,COLUNA12*%
X252095000Y-82550000D03*
%TO.P,SW71,2,2_2*%
%TO.N,Net-(D70-A)*%
X258445000Y-80010000D03*
%TD*%
D10*
%TO.P,D22,1,K_1*%
%TO.N,LINHA3*%
X127000000Y-126365000D03*
D11*
%TO.P,D22,2,A_2*%
%TO.N,Net-(D22-A)*%
X127000000Y-118745000D03*
%TD*%
D12*
%TO.P,SW31,1,1_1*%
%TO.N,COLUNA5*%
X118745000Y-82550000D03*
%TO.P,SW31,2,2_2*%
%TO.N,Net-(D31-A)*%
X125095000Y-80010000D03*
%TD*%
D10*
%TO.P,D11,1,K_1*%
%TO.N,LINHA4*%
X50800000Y-127000000D03*
D11*
%TO.P,D11,2,A_2*%
%TO.N,Net-(D11-A)*%
X50800000Y-119380000D03*
%TD*%
D18*
%TO.P,S3,*%
%TO.N,*%
X85248750Y-134620000D03*
X185261250Y-134620000D03*
%TD*%
D10*
%TO.P,D37,1,K_1*%
%TO.N,LINHA2*%
X151765000Y-88900000D03*
D11*
%TO.P,D37,2,A_2*%
%TO.N,Net-(D37-A)*%
X151765000Y-81280000D03*
%TD*%
D12*
%TO.P,SW56,1,1_1*%
%TO.N,COLUNA9*%
X224155000Y-139700000D03*
%TO.P,SW56,2,2_2*%
%TO.N,Net-(D56-A)*%
X230505000Y-137160000D03*
%TD*%
D10*
%TO.P,D71,1,K_1*%
%TO.N,LINHA3*%
X256540000Y-146050000D03*
D11*
%TO.P,D71,2,A_2*%
%TO.N,Net-(D71-A)*%
X256540000Y-138430000D03*
%TD*%
D10*
%TO.P,D62,1,K_1*%
%TO.N,LINHA0*%
X265430000Y-50800000D03*
D11*
%TO.P,D62,2,A_2*%
%TO.N,Net-(D62-A)*%
X265430000Y-43180000D03*
%TD*%
D12*
%TO.P,SW83,1,1_1*%
%TO.N,COLUNA13*%
X334010000Y-120650000D03*
%TO.P,SW83,2,2_2*%
%TO.N,Net-(D82-A)*%
X340360000Y-118110000D03*
%TD*%
D10*
%TO.P,D73,1,K_1*%
%TO.N,LINHA1*%
X265430000Y-92710000D03*
D11*
%TO.P,D73,2,A_2*%
%TO.N,Net-(D73-A)*%
X265430000Y-85090000D03*
%TD*%
D10*
%TO.P,D68,1,K_1*%
%TO.N,LINHA0*%
X283210000Y-50165000D03*
D11*
%TO.P,D68,2,A_2*%
%TO.N,Net-(D68-A)*%
X283210000Y-42545000D03*
%TD*%
D19*
%TO.N,LINHA5*%
X215212100Y-127958800D03*
%TO.N,LINHA0*%
X314332500Y-87147500D03*
%TO.N,LINHA4*%
X219699400Y-81662700D03*
X18877800Y-109166300D03*
X300694000Y-75717500D03*
%TO.N,COLUNA11*%
X232863300Y-100462300D03*
%TO.N,LINHA3*%
X16036400Y-88900000D03*
X200617500Y-110621800D03*
%TO.N,COLUNA12*%
X249341000Y-83423200D03*
%TO.N,LINHA1*%
X297068900Y-70592700D03*
%TO.N,LINHA2*%
X223142400Y-125188100D03*
X300831300Y-128735600D03*
X220648600Y-90899800D03*
%TO.N,Net-(D22-A)*%
X86476400Y-115183800D03*
%TO.N,Net-(D27-A)*%
X112457600Y-112945700D03*
%TO.N,Net-(D28-A)*%
X189610800Y-115772300D03*
%TO.N,Net-(D34-A)*%
X154573300Y-95223900D03*
X325280500Y-75840300D03*
%TO.N,Net-(D38-A)*%
X134326900Y-114577400D03*
%TO.N,Net-(D44-A)*%
X153538900Y-113590600D03*
%TO.N,Net-(D49-A)*%
X171902300Y-70996700D03*
%TO.N,Net-(D50-A)*%
X177878200Y-106803200D03*
%TO.N,Net-(D54-A)*%
X166057100Y-105658300D03*
%TO.N,Net-(D65-A)*%
X253594200Y-130856900D03*
%TO.N,Net-(D72-A)*%
X260758900Y-132116800D03*
%TO.N,Net-(D78-A)*%
X271770800Y-97155700D03*
%TO.N,Net-(D85-A)*%
X286127600Y-58042400D03*
%TO.N,Net-(D87-A)*%
X246947500Y-133854200D03*
%TO.N,Net-(D82-A)*%
X151606100Y-111802200D03*
%TO.N,Net-(D83-A)*%
X254861900Y-78324500D03*
%TD*%
%TO.N,COLUNA1*%
D20*
X37465000Y-62697800D02*
X37465000Y-63500000D01*
X37465000Y-63500000D02*
X38565200Y-64600200D01*
X40148000Y-80153000D02*
X40148000Y-82535300D01*
X42545000Y-82550000D02*
X42530300Y-82535300D01*
X36335400Y-100470400D02*
X37465000Y-101600000D01*
X38565200Y-78570200D02*
X40148000Y-80153000D01*
X37644600Y-139520400D02*
X37465000Y-139700000D01*
X56515000Y-44450000D02*
X55712800Y-44450000D01*
X55712800Y-44450000D02*
X37465000Y-62697800D01*
X37465000Y-120650000D02*
X37644600Y-120829600D01*
X37465000Y-101600000D02*
X37644500Y-101779500D01*
X40148000Y-82535300D02*
X36335400Y-86347900D01*
X42530300Y-82535300D02*
X40148000Y-82535300D01*
X37644500Y-101779500D02*
X37644500Y-120470500D01*
X36335400Y-86347900D02*
X36335400Y-100470400D01*
X37644500Y-120470500D02*
X37465000Y-120650000D01*
X38565200Y-64600200D02*
X38565200Y-78570200D01*
X37644600Y-120829600D02*
X37644600Y-139520400D01*
%TO.N,COLUAN14*%
X353060000Y-128730700D02*
X353060000Y-139700000D01*
X292301700Y-89889200D02*
X314218500Y-89889200D01*
X287020000Y-84607500D02*
X292301700Y-89889200D01*
X314218500Y-89889200D02*
X353060000Y-128730700D01*
%TO.N,LINHA5*%
X59831600Y-138140400D02*
X59831600Y-138865500D01*
X222250000Y-108585000D02*
X221101200Y-107436200D01*
X163950500Y-125850500D02*
X163950500Y-109734500D01*
X223764700Y-125485300D02*
X223764700Y-110099700D01*
X221101200Y-95763800D02*
X227330000Y-89535000D01*
X63062800Y-135708300D02*
X62263700Y-135708300D01*
X59831600Y-138865500D02*
X56993900Y-141703200D01*
X68698100Y-109101900D02*
X68698100Y-123785300D01*
X70978200Y-126065400D02*
X70978200Y-127792900D01*
X218440000Y-144145000D02*
X215212100Y-140917100D01*
X163950500Y-109734500D02*
X165100000Y-108585000D01*
X56993900Y-142537400D02*
X54116300Y-145415000D01*
X69850000Y-107950000D02*
X68698100Y-109101900D01*
X54116300Y-145415000D02*
X50800000Y-145415000D01*
X165100000Y-127000000D02*
X163950500Y-125850500D01*
X70978200Y-127792900D02*
X63062800Y-135708300D01*
X62263700Y-135708300D02*
X59831600Y-138140400D01*
X222250000Y-127000000D02*
X223764700Y-125485300D01*
X68698100Y-123785300D02*
X70978200Y-126065400D01*
X223764700Y-110099700D02*
X222250000Y-108585000D01*
X56993900Y-141703200D02*
X56993900Y-142537400D01*
X215212100Y-140917100D02*
X215212100Y-127958800D01*
X221101200Y-107436200D02*
X221101200Y-95763800D01*
%TO.N,LINHA0*%
X275044700Y-44346800D02*
X275941600Y-44346800D01*
X265430000Y-48087300D02*
X270544800Y-42972500D01*
X275941600Y-44346800D02*
X278608300Y-47013500D01*
X273670400Y-42972500D02*
X275044700Y-44346800D01*
X265430000Y-50800000D02*
X265430000Y-48087300D01*
X322079300Y-87661200D02*
X314846200Y-87661200D01*
X278608300Y-47013500D02*
X278608300Y-47580900D01*
X278608300Y-47580900D02*
X281192400Y-50165000D01*
X314846200Y-87661200D02*
X314332500Y-87147500D01*
X327025000Y-51435000D02*
X324672200Y-53787800D01*
X281192400Y-50165000D02*
X283210000Y-50165000D01*
X270544800Y-42972500D02*
X273670400Y-42972500D01*
X227330000Y-50800000D02*
X206375000Y-50800000D01*
X324672200Y-53787800D02*
X324672200Y-85068300D01*
X324672200Y-85068300D02*
X322079300Y-87661200D01*
%TO.N,COLUNA0*%
X18594600Y-108598700D02*
X18276100Y-108917200D01*
X18594500Y-44629500D02*
X18594500Y-63320500D01*
X18594600Y-139520400D02*
X18415000Y-139700000D01*
X18276100Y-120511100D02*
X18415000Y-120650000D01*
X18594600Y-101779600D02*
X18594600Y-108598700D01*
X18893900Y-63978900D02*
X18893900Y-77948900D01*
X22867900Y-81922900D02*
X16657700Y-88133100D01*
X18594600Y-120829600D02*
X18594600Y-139520400D01*
X16657700Y-99842700D02*
X18415000Y-101600000D01*
X18276100Y-108917200D02*
X18276100Y-120511100D01*
X18594500Y-63320500D02*
X18415000Y-63500000D01*
X18415000Y-120650000D02*
X18594600Y-120829600D01*
X22867900Y-81922900D02*
X23495000Y-82550000D01*
X18415000Y-44450000D02*
X18594500Y-44629500D01*
X18893900Y-77948900D02*
X22867900Y-81922900D01*
X16657700Y-88133100D02*
X16657700Y-99842700D01*
X18415000Y-63500000D02*
X18893900Y-63978900D01*
X18415000Y-101600000D02*
X18594600Y-101779600D01*
%TO.N,COLUNA6*%
X133193900Y-77948900D02*
X137795000Y-82550000D01*
X133193900Y-63978900D02*
X133193900Y-77948900D01*
X154940000Y-44450000D02*
X151765000Y-44450000D01*
X137974500Y-82729500D02*
X137974500Y-96340500D01*
X137795000Y-82550000D02*
X137974500Y-82729500D01*
X132872300Y-120492700D02*
X132715000Y-120650000D01*
X132715000Y-63500000D02*
X133193900Y-63978900D01*
X151765000Y-44450000D02*
X132715000Y-63500000D01*
X132715000Y-101600000D02*
X132872300Y-101757300D01*
X132872300Y-101757300D02*
X132872300Y-120492700D01*
X137974500Y-96340500D02*
X132715000Y-101600000D01*
%TO.N,COLUNA13*%
X313690000Y-44450000D02*
X312886200Y-44450000D01*
X275985300Y-87699300D02*
X275985300Y-90160000D01*
X286285000Y-79527500D02*
X287020000Y-79527500D01*
X311276700Y-120650000D02*
X334010000Y-120650000D01*
X294324600Y-72222900D02*
X287020000Y-79527500D01*
X272610500Y-59494500D02*
X275583900Y-59494500D01*
X334010000Y-120650000D02*
X335134400Y-121774400D01*
X335134400Y-121774400D02*
X335134400Y-138575600D01*
X275985300Y-90160000D02*
X277200500Y-91375200D01*
X308900600Y-48435600D02*
X308900600Y-54152600D01*
X304513300Y-57934800D02*
X294324600Y-68123500D01*
X282001900Y-91375200D02*
X311276700Y-120650000D01*
X277200500Y-91375200D02*
X282001900Y-91375200D01*
X308900600Y-54152600D02*
X305118400Y-57934800D01*
X312886200Y-44450000D02*
X308900600Y-48435600D01*
X268605000Y-63500000D02*
X272610500Y-59494500D01*
X278921700Y-72164200D02*
X285221100Y-78463500D01*
X271145000Y-90805000D02*
X271790000Y-90160000D01*
X335134400Y-138575600D02*
X334010000Y-139700000D01*
X285221100Y-78463500D02*
X286285000Y-79527500D01*
X305118400Y-57934800D02*
X304513300Y-57934800D01*
X285221100Y-78463500D02*
X275985300Y-87699300D01*
X275583900Y-59494500D02*
X278921700Y-62832300D01*
X278921700Y-62832300D02*
X278921700Y-72164200D01*
X271790000Y-90160000D02*
X275985300Y-90160000D01*
X294324600Y-68123500D02*
X294324600Y-72222900D01*
%TO.N,LINHA4*%
X18893900Y-141703200D02*
X18893900Y-142561600D01*
X219583300Y-122428300D02*
X219583300Y-126800000D01*
X228686300Y-133190100D02*
X237490000Y-141993800D01*
X219583300Y-126800000D02*
X225973400Y-133190100D01*
X146050000Y-107950000D02*
X147787000Y-109687000D01*
X206917800Y-111667800D02*
X208822800Y-111667800D01*
X215483800Y-104370100D02*
X220046800Y-99807100D01*
X220046800Y-99807100D02*
X220046800Y-87634100D01*
X87742800Y-125842800D02*
X88900000Y-127000000D01*
X147787000Y-125898000D02*
X146685000Y-127000000D01*
X237490000Y-141993800D02*
X237490000Y-142240000D01*
X208822800Y-111667800D02*
X215483800Y-105006800D01*
X31750000Y-122038500D02*
X18877800Y-109166300D01*
X12700000Y-107950000D02*
X13861100Y-106788900D01*
X15405500Y-146050000D02*
X13335000Y-146050000D01*
X18893900Y-142561600D02*
X15405500Y-146050000D01*
X147787000Y-109687000D02*
X147787000Y-125898000D01*
X21731600Y-138865500D02*
X18893900Y-141703200D01*
X21731600Y-137018400D02*
X21731600Y-138865500D01*
X13861100Y-71011100D02*
X12700000Y-69850000D01*
X220046800Y-87634100D02*
X220387200Y-87293700D01*
X31750000Y-127000000D02*
X31750000Y-122038500D01*
X88900000Y-116084600D02*
X87742800Y-117241800D01*
X88900000Y-106680000D02*
X88900000Y-116084600D01*
X215265000Y-118110000D02*
X219583300Y-122428300D01*
X215483800Y-105006800D02*
X215483800Y-104370100D01*
X220387200Y-87293700D02*
X220387200Y-82350500D01*
X301964000Y-74447500D02*
X300694000Y-75717500D01*
X208822800Y-111667800D02*
X215265000Y-118110000D01*
X87742800Y-117241800D02*
X87742800Y-125842800D01*
X203200000Y-107950000D02*
X206917800Y-111667800D01*
X31750000Y-127000000D02*
X21731600Y-137018400D01*
X304800000Y-74447500D02*
X301964000Y-74447500D01*
X13861100Y-106788900D02*
X13861100Y-71011100D01*
X225973400Y-133190100D02*
X228686300Y-133190100D01*
X220387200Y-82350500D02*
X219699400Y-81662700D01*
%TO.N,COLUNA7*%
X152865200Y-63500000D02*
X152865200Y-78570200D01*
X152210100Y-102045100D02*
X152210100Y-120204900D01*
X152210100Y-120204900D02*
X151765000Y-120650000D01*
X171915200Y-44450000D02*
X152865200Y-63500000D01*
X154448000Y-82550000D02*
X156845000Y-82550000D01*
X154448000Y-80153000D02*
X154448000Y-82550000D01*
X152865200Y-78570200D02*
X154448000Y-80153000D01*
X173990000Y-44450000D02*
X171915200Y-44450000D01*
X154448000Y-82550000D02*
X150592300Y-86405700D01*
X150592300Y-86405700D02*
X150592300Y-100427300D01*
X151765000Y-101600000D02*
X152210100Y-102045100D01*
X151765000Y-63500000D02*
X152865200Y-63500000D01*
X150592300Y-100427300D02*
X151765000Y-101600000D01*
%TO.N,COLUNA11*%
X284955700Y-70918900D02*
X284955700Y-72383200D01*
X232863300Y-98458700D02*
X232863300Y-100462300D01*
X259166500Y-142016300D02*
X259166500Y-145305000D01*
X259166500Y-145305000D02*
X257298600Y-147172900D01*
X228994200Y-121679200D02*
X227965000Y-120650000D01*
X254948300Y-147172900D02*
X250283200Y-142507800D01*
X244456400Y-55380600D02*
X236084400Y-55380600D01*
X233775800Y-128842400D02*
X228994200Y-124060800D01*
X257298600Y-147172900D02*
X254948300Y-147172900D01*
X228124000Y-101759000D02*
X228124000Y-120491000D01*
X233215100Y-82720100D02*
X233215100Y-98106900D01*
X272719000Y-55991900D02*
X279446000Y-62718900D01*
X228430200Y-77935200D02*
X233045000Y-82550000D01*
X228430200Y-63965200D02*
X228430200Y-77935200D01*
X262255000Y-139700000D02*
X261482800Y-139700000D01*
X252573900Y-47263100D02*
X252573900Y-44928900D01*
X279446000Y-62718900D02*
X279446000Y-65409200D01*
X250283200Y-142507800D02*
X250283200Y-141318200D01*
X252573900Y-47263100D02*
X261302700Y-55991900D01*
X228994200Y-124060800D02*
X228994200Y-121679200D01*
X236084400Y-55380600D02*
X227965000Y-63500000D01*
X279446000Y-65409200D02*
X284955700Y-70918900D01*
X261302700Y-55991900D02*
X272719000Y-55991900D01*
X261482800Y-139700000D02*
X259166500Y-142016300D01*
X252573900Y-44928900D02*
X252095000Y-44450000D01*
X250283200Y-141318200D02*
X237807400Y-128842400D01*
X227965000Y-63500000D02*
X228430200Y-63965200D01*
X228124000Y-120491000D02*
X227965000Y-120650000D01*
X252573900Y-47263100D02*
X244456400Y-55380600D01*
X237807400Y-128842400D02*
X233775800Y-128842400D01*
X227965000Y-101600000D02*
X228124000Y-101759000D01*
X233215100Y-98106900D02*
X232863300Y-98458700D01*
X233045000Y-82550000D02*
X233215100Y-82720100D01*
X284955700Y-72383200D02*
X287020000Y-74447500D01*
%TO.N,COLUNA4*%
X94615000Y-101600000D02*
X94794500Y-101779500D01*
X95093900Y-63978900D02*
X95093900Y-77948900D01*
X94615000Y-63500000D02*
X95093900Y-63978900D01*
X95093900Y-77948900D02*
X99695000Y-82550000D01*
X113665000Y-44450000D02*
X112365900Y-44450000D01*
X94794500Y-101779500D02*
X94794500Y-120470500D01*
X112365900Y-44450000D02*
X94615000Y-62200900D01*
X94615000Y-62200900D02*
X94615000Y-63500000D01*
X99874500Y-82729500D02*
X99695000Y-82550000D01*
X94794500Y-120470500D02*
X94615000Y-120650000D01*
X94615000Y-101600000D02*
X99874500Y-96340500D01*
X99874500Y-96340500D02*
X99874500Y-82729500D01*
%TO.N,LINHA3*%
X165100000Y-146050000D02*
X144780000Y-146050000D01*
X69850000Y-125582500D02*
X64044300Y-119776800D01*
X200617500Y-123782500D02*
X200617500Y-110621800D01*
X20320000Y-88900000D02*
X17780000Y-88900000D01*
X325910200Y-124615200D02*
X334010000Y-132715000D01*
X69850000Y-127000000D02*
X69850000Y-125582500D01*
X138586300Y-141920200D02*
X142716100Y-146050000D01*
X284480000Y-99695000D02*
X309400200Y-124615200D01*
X50800000Y-108159000D02*
X50800000Y-107950000D01*
X309400200Y-124615200D02*
X325910200Y-124615200D01*
X62417800Y-119776800D02*
X50800000Y-108159000D01*
X142716100Y-146050000D02*
X144780000Y-146050000D01*
X15385300Y-124314700D02*
X15385300Y-89551100D01*
X254647800Y-144157800D02*
X256540000Y-146050000D01*
X138586300Y-141254200D02*
X138586300Y-141920200D01*
X127000000Y-129667900D02*
X138586300Y-141254200D01*
X15385300Y-89551100D02*
X16036400Y-88900000D01*
X64044300Y-119776800D02*
X62417800Y-119776800D01*
X203200000Y-126365000D02*
X200617500Y-123782500D01*
X184150000Y-127000000D02*
X165100000Y-146050000D01*
X127000000Y-126365000D02*
X127000000Y-129667900D01*
X254647800Y-121297800D02*
X254647800Y-144157800D01*
X31750000Y-100330000D02*
X20320000Y-88900000D01*
X12700000Y-127000000D02*
X15385300Y-124314700D01*
X241300000Y-107950000D02*
X254647800Y-121297800D01*
%TO.N,COLUNA12*%
X247493900Y-63978900D02*
X247015000Y-63500000D01*
X248975900Y-99639100D02*
X248975900Y-97594500D01*
X286712200Y-70634800D02*
X280491800Y-64414400D01*
X247015000Y-101600000D02*
X248975900Y-99639100D01*
X262255000Y-120650000D02*
X266270200Y-116634800D01*
X253972200Y-97594500D02*
X259070700Y-102693000D01*
X271623900Y-44928900D02*
X271145000Y-44450000D01*
X248975900Y-83788300D02*
X248975900Y-97594500D01*
X305107200Y-139700000D02*
X314960000Y-139700000D01*
X288126200Y-71435600D02*
X287325400Y-70634800D01*
X288126200Y-75881300D02*
X288126200Y-71435600D01*
X287325400Y-70634800D02*
X286712200Y-70634800D01*
X248975900Y-97594500D02*
X253972200Y-97594500D01*
X282042000Y-116634800D02*
X305107200Y-139700000D01*
X252095000Y-82550000D02*
X247493900Y-77948900D01*
X271623900Y-49190500D02*
X271623900Y-44928900D01*
X287020000Y-76987500D02*
X288126200Y-75881300D01*
X259070700Y-117465700D02*
X262255000Y-120650000D01*
X266270200Y-116634800D02*
X282042000Y-116634800D01*
X247493900Y-77948900D02*
X247493900Y-63978900D01*
X249341000Y-83423200D02*
X248975900Y-83788300D01*
X259070700Y-102693000D02*
X259070700Y-117465700D01*
X280491800Y-58058400D02*
X271623900Y-49190500D01*
X280491800Y-64414400D02*
X280491800Y-58058400D01*
%TO.N,COLUNA5*%
X113665000Y-120650000D02*
X114143900Y-121128900D01*
X116030500Y-82550000D02*
X111901500Y-86679000D01*
X113665000Y-101600000D02*
X113827800Y-101762800D01*
X114143900Y-121128900D02*
X114143900Y-123493400D01*
X129715500Y-139065000D02*
X131445000Y-139065000D01*
X114143900Y-63978900D02*
X114143900Y-80663400D01*
X111901500Y-86679000D02*
X111901500Y-99836500D01*
X135890000Y-44450000D02*
X132715000Y-44450000D01*
X114143900Y-123493400D02*
X129715500Y-139065000D01*
X111901500Y-99836500D02*
X113665000Y-101600000D01*
X114143900Y-80663400D02*
X116030500Y-82550000D01*
X113827800Y-120487200D02*
X113665000Y-120650000D01*
X113827800Y-101762800D02*
X113827800Y-120487200D01*
X113665000Y-63500000D02*
X114143900Y-63978900D01*
X132715000Y-44450000D02*
X113665000Y-63500000D01*
X116030500Y-82550000D02*
X118745000Y-82550000D01*
%TO.N,COLUNA10*%
X248618000Y-42972500D02*
X247264400Y-44326100D01*
X213995000Y-82550000D02*
X214473900Y-83028900D01*
X209695500Y-123800800D02*
X213239600Y-127344900D01*
X280029100Y-64916600D02*
X280029100Y-62734000D01*
X233376700Y-44326100D02*
X233252800Y-44450000D01*
X233252800Y-47553000D02*
X224284600Y-56521200D01*
X215915000Y-100524100D02*
X209990900Y-100524100D01*
X269339200Y-52044100D02*
X264002500Y-52044100D01*
X202075200Y-107151400D02*
X202075200Y-113810200D01*
X280029100Y-62734000D02*
X269339200Y-52044100D01*
X214473900Y-95682800D02*
X216762400Y-97971300D01*
X214473900Y-83028900D02*
X214473900Y-95682800D01*
X216762400Y-99676700D02*
X215915000Y-100524100D01*
X264002500Y-52044100D02*
X258930100Y-46971700D01*
X218536100Y-127344900D02*
X231636100Y-140444900D01*
X209393900Y-77948900D02*
X209393900Y-63978900D01*
X233252800Y-44450000D02*
X233252800Y-47553000D01*
X216762400Y-97971300D02*
X216762400Y-99676700D01*
X258930100Y-46414800D02*
X255487800Y-42972500D01*
X233301000Y-140444900D02*
X236211800Y-143355700D01*
X213995000Y-82550000D02*
X209393900Y-77948900D01*
X209990900Y-100524100D02*
X208915000Y-101600000D01*
X241945100Y-139700000D02*
X243205000Y-139700000D01*
X238289400Y-143355700D02*
X241945100Y-139700000D01*
X224284600Y-56521200D02*
X216851600Y-56521200D01*
X247264400Y-44326100D02*
X233376700Y-44326100D01*
X216851600Y-56521200D02*
X209393900Y-63978900D01*
X207626600Y-101600000D02*
X202075200Y-107151400D01*
X233252800Y-44450000D02*
X233045000Y-44450000D01*
X287020000Y-71907500D02*
X280029100Y-64916600D01*
X255487800Y-42972500D02*
X248618000Y-42972500D01*
X209695500Y-121430500D02*
X209695500Y-123800800D01*
X208915000Y-101600000D02*
X207626600Y-101600000D01*
X258930100Y-46971700D02*
X258930100Y-46414800D01*
X236211800Y-143355700D02*
X238289400Y-143355700D01*
X213239600Y-127344900D02*
X218536100Y-127344900D01*
X202075200Y-113810200D02*
X208915000Y-120650000D01*
X209393900Y-63978900D02*
X208915000Y-63500000D01*
X231636100Y-140444900D02*
X233301000Y-140444900D01*
X208915000Y-120650000D02*
X209695500Y-121430500D01*
%TO.N,COLUNA9*%
X213995000Y-44450000D02*
X218020600Y-40424400D01*
X212916600Y-138263400D02*
X212560700Y-138619300D01*
X189865000Y-120650000D02*
X190343900Y-121128900D01*
X220065800Y-142952600D02*
X223318400Y-139700000D01*
X182996100Y-107667300D02*
X182996100Y-119793900D01*
X219215700Y-145261400D02*
X220065800Y-144411300D01*
X208915000Y-44450000D02*
X189865000Y-63500000D01*
X223318400Y-139700000D02*
X224155000Y-139700000D01*
X220065800Y-144411300D02*
X220065800Y-142952600D01*
X194945000Y-82550000D02*
X195124500Y-82729500D01*
X218020600Y-40424400D02*
X271890500Y-40424400D01*
X284806000Y-49740900D02*
X284806000Y-53515900D01*
X189063400Y-101600000D02*
X182996100Y-107667300D01*
X278372100Y-43873000D02*
X278772400Y-44273300D01*
X201581800Y-134767900D02*
X211137900Y-134767900D01*
X271890500Y-40424400D02*
X275339100Y-43873000D01*
X190343800Y-63978800D02*
X190343800Y-77948800D01*
X212560700Y-138619300D02*
X212560700Y-142830700D01*
X190343900Y-123530000D02*
X201581800Y-134767900D01*
X284806000Y-53515900D02*
X286690300Y-55400200D01*
X182996100Y-119793900D02*
X183852200Y-120650000D01*
X212560700Y-142830700D02*
X214991400Y-145261400D01*
X287681000Y-55400200D02*
X288136500Y-55855700D01*
X278772400Y-44273300D02*
X279105000Y-44273300D01*
X286690300Y-55400200D02*
X287681000Y-55400200D01*
X195124500Y-96340500D02*
X189865000Y-101600000D01*
X211137900Y-134767900D02*
X212916600Y-136546600D01*
X288136500Y-55855700D02*
X288136500Y-65711000D01*
X189865000Y-63500000D02*
X190343800Y-63978800D01*
X190343900Y-121128900D02*
X190343900Y-123530000D01*
X189865000Y-101600000D02*
X189063400Y-101600000D01*
X190343800Y-77948800D02*
X194945000Y-82550000D01*
X275339100Y-43873000D02*
X278372100Y-43873000D01*
X214991400Y-145261400D02*
X219215700Y-145261400D01*
X279263000Y-44197900D02*
X284806000Y-49740900D01*
X279105000Y-44273300D02*
X279180400Y-44197900D01*
X183852200Y-120650000D02*
X189865000Y-120650000D01*
X279180400Y-44197900D02*
X279263000Y-44197900D01*
X288136500Y-65711000D02*
X287020000Y-66827500D01*
X212916600Y-136546600D02*
X212916600Y-138263400D01*
X213995000Y-44450000D02*
X208915000Y-44450000D01*
X195124500Y-82729500D02*
X195124500Y-96340500D01*
%TO.N,LINHA1*%
X253989100Y-59460300D02*
X248975100Y-59460300D01*
X246380000Y-74930000D02*
X241300000Y-69850000D01*
X304800000Y-84607500D02*
X303477900Y-83285400D01*
X297068900Y-73638800D02*
X297068900Y-70592700D01*
X249381900Y-84233200D02*
X249942700Y-83672400D01*
X248975100Y-59460300D02*
X241300000Y-67135400D01*
X260985000Y-107950000D02*
X259862400Y-106827400D01*
X246380000Y-81280000D02*
X246380000Y-74930000D01*
X241300000Y-67135400D02*
X241300000Y-69850000D01*
X248068800Y-81280000D02*
X246380000Y-81280000D01*
X249942700Y-83153900D02*
X248068800Y-81280000D01*
X262890000Y-68361200D02*
X253989100Y-59460300D01*
X259862400Y-92710000D02*
X265430000Y-92710000D01*
X303477900Y-80047800D02*
X297068900Y-73638800D01*
X256341100Y-92710000D02*
X249381900Y-85750800D01*
X259862400Y-106827400D02*
X259862400Y-92710000D01*
X259862400Y-92710000D02*
X256341100Y-92710000D01*
X249942700Y-83672400D02*
X249942700Y-83153900D01*
X262890000Y-69850000D02*
X262890000Y-68361200D01*
X303477900Y-83285400D02*
X303477900Y-80047800D01*
X249381900Y-85750800D02*
X249381900Y-84233200D01*
%TO.N,COLUNA3*%
X75565000Y-62200900D02*
X75565000Y-63500000D01*
X77930500Y-82413500D02*
X80508500Y-82413500D01*
X76043900Y-63978900D02*
X76043900Y-80526900D01*
X94615000Y-44450000D02*
X93315900Y-44450000D01*
X75565000Y-63500000D02*
X76043900Y-63978900D01*
X75744600Y-101779600D02*
X75744600Y-120470400D01*
X73802500Y-99837500D02*
X75565000Y-101600000D01*
X80508500Y-82413500D02*
X80645000Y-82550000D01*
X75744600Y-120470400D02*
X75565000Y-120650000D01*
X77930500Y-82413500D02*
X73802500Y-86541500D01*
X73802500Y-86541500D02*
X73802500Y-99837500D01*
X75565000Y-101600000D02*
X75744600Y-101779600D01*
X76043900Y-80526900D02*
X77930500Y-82413500D01*
X93315900Y-44450000D02*
X75565000Y-62200900D01*
%TO.N,COLUNA8*%
X279413300Y-43780200D02*
X279030100Y-43780200D01*
X170994600Y-101779600D02*
X170994600Y-120470400D01*
X176069700Y-82724700D02*
X176069700Y-96345300D01*
X285885200Y-65422300D02*
X285885200Y-67332200D01*
X285885200Y-67332200D02*
X286518400Y-67965400D01*
X279030100Y-43780200D02*
X278980000Y-43830300D01*
X171293900Y-63978900D02*
X190822800Y-44450000D01*
X170994600Y-120470400D02*
X170815000Y-120650000D01*
X278821300Y-43612800D02*
X278624300Y-43415800D01*
X287020000Y-64287500D02*
X285885200Y-65422300D01*
X170815000Y-101600000D02*
X170994600Y-101779600D01*
X171293900Y-77948900D02*
X175895000Y-82550000D01*
X288594200Y-66854900D02*
X288594200Y-54078900D01*
X272593800Y-40020400D02*
X197469600Y-40020400D01*
X286518400Y-67965400D02*
X287483700Y-67965400D01*
X278624300Y-43415800D02*
X275989200Y-43415800D01*
X176069700Y-96345300D02*
X170815000Y-101600000D01*
X287483700Y-67965400D02*
X288594200Y-66854900D01*
X197469600Y-40020400D02*
X193040000Y-44450000D01*
X275989200Y-43415800D02*
X272593800Y-40020400D01*
X278897400Y-43830300D02*
X278821300Y-43754200D01*
X288594200Y-54078900D02*
X287372800Y-52857500D01*
X190822800Y-44450000D02*
X193040000Y-44450000D01*
X170815000Y-63500000D02*
X171293900Y-63978900D01*
X175895000Y-82550000D02*
X176069700Y-82724700D01*
X287372800Y-52857500D02*
X286731100Y-52857500D01*
X199882800Y-139700000D02*
X205105000Y-139700000D01*
X285622300Y-51748700D02*
X285622300Y-49989200D01*
X180653200Y-120470400D02*
X199882800Y-139700000D01*
X278821300Y-43754200D02*
X278821300Y-43612800D01*
X278980000Y-43830300D02*
X278897400Y-43830300D01*
X171293900Y-63978900D02*
X171293900Y-77948900D01*
X286731100Y-52857500D02*
X285622300Y-51748700D01*
X170994600Y-120470400D02*
X180653200Y-120470400D01*
X285622300Y-49989200D02*
X279413300Y-43780200D01*
%TO.N,LINHA2*%
X314172500Y-88900000D02*
X327025000Y-88900000D01*
X322101300Y-141910700D02*
X318437400Y-138246800D01*
X223363000Y-124967500D02*
X223363000Y-117394300D01*
X354555800Y-97380800D02*
X354555800Y-140686300D01*
X326208000Y-146685000D02*
X322101300Y-142578300D01*
X310342500Y-138246800D02*
X300831300Y-128735600D01*
X220648600Y-114679900D02*
X220648600Y-90899800D01*
X354555800Y-140686300D02*
X353410300Y-141831800D01*
X223363000Y-117394300D02*
X220648600Y-114679900D01*
X223142400Y-125188100D02*
X223363000Y-124967500D01*
X304800000Y-79527500D02*
X314172500Y-88900000D01*
X353410300Y-141831800D02*
X353410300Y-142748500D01*
X55880000Y-88900000D02*
X37465000Y-88900000D01*
X318437400Y-138246800D02*
X310342500Y-138246800D01*
X346075000Y-88900000D02*
X354555800Y-97380800D01*
X349473800Y-146685000D02*
X347980000Y-146685000D01*
X328930000Y-146685000D02*
X326208000Y-146685000D01*
X322101300Y-142578300D02*
X322101300Y-141910700D01*
X353410300Y-142748500D02*
X349473800Y-146685000D01*
%TO.N,COLUNA2*%
X56694500Y-104737000D02*
X54867300Y-106564200D01*
X49694100Y-107170900D02*
X49694100Y-113829100D01*
X49694100Y-113829100D02*
X56515000Y-120650000D01*
X56515000Y-62210300D02*
X56515000Y-63500000D01*
X50300800Y-106564200D02*
X49694100Y-107170900D01*
X54867300Y-106564200D02*
X50300800Y-106564200D01*
X56694600Y-139520400D02*
X56515000Y-139700000D01*
X61774500Y-96340500D02*
X61774500Y-82729500D01*
X56993900Y-77948900D02*
X61595000Y-82550000D01*
X56694600Y-120829600D02*
X56694600Y-139520400D01*
X56515000Y-101600000D02*
X56694500Y-101779500D01*
X56515000Y-63500000D02*
X56993900Y-63978900D01*
X56694500Y-101779500D02*
X56694500Y-104737000D01*
X56993900Y-63978900D02*
X56993900Y-77948900D01*
X74275300Y-44450000D02*
X56515000Y-62210300D01*
X56515000Y-101600000D02*
X61774500Y-96340500D01*
X75565000Y-44450000D02*
X74275300Y-44450000D01*
X61774500Y-82729500D02*
X61595000Y-82550000D01*
X56515000Y-120650000D02*
X56694600Y-120829600D01*
%TO.N,Net-(D4-A)*%
X31750000Y-107950000D02*
X31750000Y-106045000D01*
X31750000Y-106045000D02*
X24765000Y-99060000D01*
%TO.N,Net-(D16-A)*%
X70976700Y-107171700D02*
X70976700Y-118253300D01*
X70976700Y-118253300D02*
X69850000Y-119380000D01*
X62865000Y-99060000D02*
X70976700Y-107171700D01*
%TO.N,Net-(D18-A)*%
X69850000Y-100330000D02*
X71449300Y-101929300D01*
X71449300Y-101929300D02*
X71449300Y-128575700D01*
X71449300Y-128575700D02*
X62865000Y-137160000D01*
%TO.N,Net-(D22-A)*%
X86476400Y-103621400D02*
X86476400Y-115183800D01*
X81915000Y-99060000D02*
X86476400Y-103621400D01*
%TO.N,Net-(D23-A)*%
X88900000Y-99060000D02*
X87398100Y-100561900D01*
X87398100Y-115118600D02*
X84406700Y-118110000D01*
X84406700Y-118110000D02*
X81915000Y-118110000D01*
X87398100Y-100561900D02*
X87398100Y-115118600D01*
%TO.N,Net-(D27-A)*%
X100965000Y-99060000D02*
X112457600Y-110552600D01*
X112457600Y-110552600D02*
X112457600Y-112945700D01*
%TO.N,Net-(D28-A)*%
X203200000Y-102183100D02*
X189610800Y-115772300D01*
X203200000Y-100330000D02*
X203200000Y-102183100D01*
%TO.N,Net-(D33-A)*%
X127000000Y-100965000D02*
X127000000Y-104464000D01*
X127000000Y-104464000D02*
X120015000Y-111449000D01*
X120015000Y-111449000D02*
X120015000Y-118110000D01*
%TO.N,Net-(D34-A)*%
X153239000Y-117178500D02*
X152909700Y-116849200D01*
X153015000Y-122741200D02*
X153015000Y-122021600D01*
X327025000Y-62230000D02*
X325280500Y-63974500D01*
X325280500Y-63974500D02*
X325280500Y-75840300D01*
X154573300Y-101412700D02*
X154573300Y-95223900D01*
X153239000Y-121797600D02*
X153239000Y-117178500D01*
X139231200Y-136525000D02*
X153015000Y-122741200D01*
X152909700Y-103076300D02*
X154573300Y-101412700D01*
X137795000Y-136525000D02*
X139231200Y-136525000D01*
X152909700Y-116849200D02*
X152909700Y-103076300D01*
X153015000Y-122021600D02*
X153239000Y-121797600D01*
%TO.N,Net-(D35-A)*%
X162560000Y-43180000D02*
X161290000Y-41910000D01*
X168275000Y-43180000D02*
X162560000Y-43180000D01*
%TO.N,Net-(D38-A)*%
X139163900Y-109740400D02*
X134326900Y-114577400D01*
X139065000Y-99060000D02*
X139163900Y-99158900D01*
X139163900Y-99158900D02*
X139163900Y-109740400D01*
%TO.N,Net-(D40-A)*%
X181610000Y-43180000D02*
X180340000Y-41910000D01*
X187960000Y-43180000D02*
X181610000Y-43180000D01*
%TO.N,Net-(D44-A)*%
X158058300Y-118110000D02*
X153538900Y-113590600D01*
X158115000Y-118110000D02*
X158058300Y-118110000D01*
%TO.N,Net-(D45-A)*%
X200660000Y-43180000D02*
X199390000Y-41910000D01*
X206375000Y-43180000D02*
X200660000Y-43180000D01*
%TO.N,Net-(D47-A)*%
X189230000Y-81915000D02*
X184150000Y-81915000D01*
X184150000Y-81915000D02*
X182245000Y-80010000D01*
%TO.N,Net-(D49-A)*%
X175667700Y-100238100D02*
X175667700Y-98262200D01*
X177263900Y-118011100D02*
X177263900Y-101834300D01*
X177099500Y-96830400D02*
X177099500Y-83827600D01*
X177263900Y-101834300D02*
X175667700Y-100238100D01*
X175667700Y-98262200D02*
X177099500Y-96830400D01*
X177165000Y-118110000D02*
X177263900Y-118011100D01*
X177355300Y-76449700D02*
X171902300Y-70996700D01*
X177099500Y-83827600D02*
X177355300Y-83571800D01*
X177355300Y-83571800D02*
X177355300Y-76449700D01*
%TO.N,Net-(D50-A)*%
X211455000Y-137160000D02*
X199782100Y-137160000D01*
X199782100Y-137160000D02*
X177878200Y-115256100D01*
X177878200Y-115256100D02*
X177878200Y-106803200D01*
%TO.N,Net-(D54-A)*%
X159071300Y-124138700D02*
X144780000Y-138430000D01*
X159071300Y-121179800D02*
X159071300Y-124138700D01*
X161679800Y-110035600D02*
X161679800Y-118571300D01*
X161679800Y-118571300D02*
X159071300Y-121179800D01*
X166057100Y-105658300D02*
X161679800Y-110035600D01*
%TO.N,Net-(D59-A)*%
X234654200Y-112734200D02*
X234654200Y-103136100D01*
X241300000Y-119380000D02*
X234654200Y-112734200D01*
X228749400Y-97231300D02*
X228749400Y-88414400D01*
X228749400Y-88414400D02*
X220345000Y-80010000D01*
X234654200Y-103136100D02*
X228749400Y-97231300D01*
%TO.N,Net-(D63-A)*%
X246380000Y-87367100D02*
X246380000Y-88900000D01*
X234315000Y-60960000D02*
X235106300Y-61751300D01*
X235106300Y-61751300D02*
X235106300Y-68209700D01*
X240920400Y-74023800D02*
X240920400Y-81907500D01*
X240920400Y-81907500D02*
X246380000Y-87367100D01*
X235106300Y-68209700D02*
X240920400Y-74023800D01*
%TO.N,Net-(D64-A)*%
X240186300Y-103026300D02*
X240186300Y-80801300D01*
X240186300Y-80801300D02*
X239395000Y-80010000D01*
X256540000Y-119380000D02*
X240186300Y-103026300D01*
%TO.N,Net-(D65-A)*%
X234315000Y-99060000D02*
X239407600Y-104152600D01*
X253594200Y-123894800D02*
X253594200Y-130856900D01*
X239407600Y-104152600D02*
X239407600Y-109708200D01*
X239407600Y-109708200D02*
X253594200Y-123894800D01*
%TO.N,Net-(D67-A)*%
X221144900Y-120485100D02*
X222250000Y-119380000D01*
X267477900Y-137160000D02*
X262733900Y-141904000D01*
X249560600Y-142402000D02*
X249560600Y-141185500D01*
X237619200Y-129244100D02*
X222605100Y-129244100D01*
X222605100Y-129244100D02*
X221144900Y-127783900D01*
X254733200Y-147574600D02*
X249560600Y-142402000D01*
X249560600Y-141185500D02*
X237619200Y-129244100D01*
X262733900Y-142548100D02*
X257707400Y-147574600D01*
X268605000Y-137160000D02*
X267477900Y-137160000D01*
X221144900Y-127783900D02*
X221144900Y-120485100D01*
X262733900Y-141904000D02*
X262733900Y-142548100D01*
X257707400Y-147574600D02*
X254733200Y-147574600D01*
%TO.N,Net-(D68-A)*%
X278130000Y-42545000D02*
X277495000Y-41910000D01*
X283210000Y-42545000D02*
X278130000Y-42545000D01*
%TO.N,Net-(D70-A)*%
X270337400Y-94837800D02*
X269275700Y-94837800D01*
X306548000Y-131048400D02*
X270337400Y-94837800D01*
X328930000Y-139065000D02*
X320913400Y-131048400D01*
X269275700Y-94837800D02*
X268216700Y-93778800D01*
X320913400Y-131048400D02*
X306548000Y-131048400D01*
X268216700Y-93778800D02*
X268216700Y-89781700D01*
X268216700Y-89781700D02*
X258445000Y-80010000D01*
%TO.N,Net-(D71-A)*%
X257651500Y-137318500D02*
X257651500Y-103346500D01*
X257651500Y-103346500D02*
X253365000Y-99060000D01*
X256540000Y-138430000D02*
X257651500Y-137318500D01*
%TO.N,Net-(D72-A)*%
X268656500Y-124219200D02*
X268656500Y-118161500D01*
X260758900Y-132116800D02*
X268656500Y-124219200D01*
X268656500Y-118161500D02*
X268605000Y-118110000D01*
%TO.N,Net-(D73-A)*%
X275024000Y-75496000D02*
X265430000Y-85090000D01*
X274955000Y-60960000D02*
X275024000Y-61029000D01*
X275024000Y-61029000D02*
X275024000Y-75496000D01*
%TO.N,Net-(D74-A)*%
X340568400Y-122316500D02*
X340568400Y-124536600D01*
X279768000Y-90538000D02*
X308789900Y-90538000D01*
X340568400Y-124536600D02*
X347980000Y-131948200D01*
X308789900Y-90538000D02*
X340568400Y-122316500D01*
X277495000Y-88265000D02*
X279768000Y-90538000D01*
X347980000Y-131948200D02*
X347980000Y-139065000D01*
%TO.N,Net-(D75-A)*%
X321945000Y-43815000D02*
X320040000Y-41910000D01*
X327025000Y-43815000D02*
X321945000Y-43815000D01*
%TO.N,Net-(D78-A)*%
X319872000Y-135722000D02*
X310337100Y-135722000D01*
X321310000Y-137160000D02*
X319872000Y-135722000D01*
X310337100Y-135722000D02*
X271770800Y-97155700D01*
%TO.N,Net-(D84-A)*%
X365125000Y-43815000D02*
X360045000Y-43815000D01*
X360045000Y-43815000D02*
X358140000Y-41910000D01*
%TO.N,Net-(D85-A)*%
X281940000Y-62230000D02*
X286127600Y-58042400D01*
%TO.N,Net-(D87-A)*%
X229424600Y-100931100D02*
X229424600Y-102622500D01*
X240017900Y-119653700D02*
X240017900Y-122951400D01*
X229424600Y-102622500D02*
X229201500Y-102845600D01*
X240017900Y-122951400D02*
X246947500Y-129881000D01*
X246947500Y-129881000D02*
X246947500Y-133854200D01*
X222250000Y-100965000D02*
X223066700Y-100148300D01*
X229201500Y-102845600D02*
X229201500Y-108837300D01*
X223066700Y-100148300D02*
X228641800Y-100148300D01*
X228641800Y-100148300D02*
X229424600Y-100931100D01*
X229201500Y-108837300D02*
X240017900Y-119653700D01*
%TO.N,COLUAN16*%
X351790000Y-63500000D02*
X351969600Y-63679600D01*
X351969600Y-82370400D02*
X351790000Y-82550000D01*
X351969600Y-63679600D02*
X351969600Y-82370400D01*
%TO.N,COLUAN15*%
X285878200Y-81589800D02*
X286529000Y-80939000D01*
X301191100Y-65557500D02*
X308784100Y-65557500D01*
X337604000Y-42942500D02*
X339111500Y-44450000D01*
X331399100Y-42942500D02*
X337604000Y-42942500D01*
X285878200Y-86005700D02*
X285878200Y-81589800D01*
X294867500Y-73288800D02*
X294867500Y-71881100D01*
X308784100Y-65557500D02*
X331399100Y-42942500D01*
X294867500Y-71881100D02*
X301191100Y-65557500D01*
X339111500Y-44450000D02*
X351790000Y-44450000D01*
X286529000Y-80939000D02*
X287217300Y-80939000D01*
X287217300Y-80939000D02*
X294867500Y-73288800D01*
X287020000Y-87147500D02*
X285878200Y-86005700D01*
%TO.N,Net-(D60-A)*%
X187164200Y-119380000D02*
X184150000Y-119380000D01*
X207484200Y-99060000D02*
X187164200Y-119380000D01*
X215265000Y-99060000D02*
X207484200Y-99060000D01*
%TO.N,Net-(D69-A)*%
X265909900Y-91246300D02*
X264461200Y-91246300D01*
X258450600Y-85235700D02*
X258450600Y-84035500D01*
X254156200Y-61751200D02*
X253365000Y-60960000D01*
X266561600Y-91898000D02*
X265909900Y-91246300D01*
X254156200Y-79741100D02*
X254156200Y-61751200D01*
X264461200Y-91246300D02*
X258450600Y-85235700D01*
X258450600Y-84035500D02*
X254156200Y-79741100D01*
X266561600Y-94753400D02*
X266561600Y-91898000D01*
X260985000Y-100330000D02*
X266561600Y-94753400D01*
%TO.N,Net-(D82-A)*%
X146050000Y-106046000D02*
X151606100Y-111602100D01*
X151606100Y-111602100D02*
X151606100Y-111802200D01*
X146050000Y-100330000D02*
X146050000Y-106046000D01*
%TO.N,Net-(D83-A)*%
X317745400Y-136525400D02*
X310244900Y-136525400D01*
X260618200Y-86763900D02*
X259255800Y-85401500D01*
X267300200Y-92006500D02*
X262057600Y-86763900D01*
X262057600Y-86763900D02*
X260618200Y-86763900D01*
X340458900Y-137258900D02*
X340458900Y-143230400D01*
X332551900Y-144822400D02*
X327894700Y-140165200D01*
X259255800Y-83571800D02*
X254861900Y-79177900D01*
X321385200Y-140165200D02*
X317745400Y-136525400D01*
X340458900Y-143230400D02*
X338866900Y-144822400D01*
X310244900Y-136525400D02*
X267300200Y-93580700D01*
X259255800Y-85401500D02*
X259255800Y-83571800D01*
X338866900Y-144822400D02*
X332551900Y-144822400D01*
X327894700Y-140165200D02*
X321385200Y-140165200D01*
X254861900Y-79177900D02*
X254861900Y-78324500D01*
X267300200Y-93580700D02*
X267300200Y-92006500D01*
X340360000Y-137160000D02*
X340458900Y-137258900D01*
%TO.N,COLUNA14*%
X313869500Y-63993600D02*
X313869500Y-82370500D01*
X313869500Y-82370500D02*
X313690000Y-82550000D01*
X313690000Y-63500000D02*
X313869500Y-63679500D01*
X313869500Y-63993600D02*
X313869500Y-62495100D01*
X313869500Y-62495100D02*
X331914600Y-44450000D01*
X331914600Y-44450000D02*
X332740000Y-44450000D01*
X313869500Y-63679500D02*
X313869500Y-63993600D01*
%TO.N,COLUNA15*%
X332919600Y-82370400D02*
X332740000Y-82550000D01*
X332919600Y-63679600D02*
X332919600Y-82370400D01*
X332740000Y-63500000D02*
X332919600Y-63679600D01*
%TD*%
M02*
