%TF.GenerationSoftware,KiCad,Pcbnew,10.0.6*%
%TF.CreationDate,2026-10-03T22:03:46-03:00*%
%TF.ProjectId,keyboard,6b657962-6f61-4726-942e-6b696361645f,rev?*%
%TF.SameCoordinates,Original*%
%TF.FileFunction,Soldermask,Bot*%
%TF.FilePolarity,Negative*%
%FSLAX46Y46*%
G04 Gerber Fmt 4.6, Leading zero omitted, Abs format (unit mm)*
G04 Created by KiCad (PCBNEW 10.0.6) date 2026-10-03 22:03:46*
%MOMM*%
%LPD*%
G01*
G04 APERTURE LIST*
G04 Aperture macros list*
%AMRoundRect*
0 Rectangle with rounded corners*
0 $1 Rounding radius*
0 $2 $3 $4 $5 $6 $7 $8 $9 X,Y pos of 4 corners*
0 Add a 4 corners polygon primitive as box body*
4,1,4,$2,$3,$4,$5,$6,$7,$8,$9,$2,$3,0*
0 Add four circle primitives for the rounded corners*
1,1,$1+$1,$2,$3*
1,1,$1+$1,$4,$5*
1,1,$1+$1,$6,$7*
1,1,$1+$1,$8,$9*
0 Add four rect primitives between the rounded corners*
20,1,$1+$1,$2,$3,$4,$5,0*
20,1,$1+$1,$4,$5,$6,$7,0*
20,1,$1+$1,$6,$7,$8,$9,0*
20,1,$1+$1,$8,$9,$2,$3,0*%
%AMFreePoly0*
4,1,37,0.603843,0.796157,0.639018,0.796157,0.711114,0.766294,0.766294,0.711114,0.796157,0.639018,0.796157,0.603843,0.800000,0.600000,0.800000,-0.600000,0.796157,-0.603843,0.796157,-0.639018,0.766294,-0.711114,0.711114,-0.766294,0.639018,-0.796157,0.603843,-0.796157,0.600000,-0.800000,0.000000,-0.800000,0.000000,-0.796148,-0.078414,-0.796148,-0.232228,-0.765552,-0.377117,-0.705537,
-0.507515,-0.618408,-0.618408,-0.507515,-0.705537,-0.377117,-0.765552,-0.232228,-0.796148,-0.078414,-0.796148,0.078414,-0.765552,0.232228,-0.705537,0.377117,-0.618408,0.507515,-0.507515,0.618408,-0.377117,0.705537,-0.232228,0.765552,-0.078414,0.796148,0.000000,0.796148,0.000000,0.800000,0.600000,0.800000,0.603843,0.796157,0.603843,0.796157,$1*%
%AMFreePoly1*
4,1,37,0.000000,0.796148,0.078414,0.796148,0.232228,0.765552,0.377117,0.705537,0.507515,0.618408,0.618408,0.507515,0.705537,0.377117,0.765552,0.232228,0.796148,0.078414,0.796148,-0.078414,0.765552,-0.232228,0.705537,-0.377117,0.618408,-0.507515,0.507515,-0.618408,0.377117,-0.705537,0.232228,-0.765552,0.078414,-0.796148,0.000000,-0.796148,0.000000,-0.800000,-0.600000,-0.800000,
-0.603843,-0.796157,-0.639018,-0.796157,-0.711114,-0.766294,-0.766294,-0.711114,-0.796157,-0.639018,-0.796157,-0.603843,-0.800000,-0.600000,-0.800000,0.600000,-0.796157,0.603843,-0.796157,0.639018,-0.766294,0.711114,-0.711114,0.766294,-0.639018,0.796157,-0.603843,0.796157,-0.600000,0.800000,0.000000,0.800000,0.000000,0.796148,0.000000,0.796148,$1*%
G04 Aperture macros list end*
%ADD10RoundRect,0.250000X0.550000X-0.550000X0.550000X0.550000X-0.550000X0.550000X-0.550000X-0.550000X0*%
%ADD11C,1.600000*%
%ADD12C,1.750000*%
%ADD13C,3.987800*%
%ADD14C,2.300000*%
%ADD15RoundRect,0.250000X-0.550000X0.550000X-0.550000X-0.550000X0.550000X-0.550000X0.550000X0.550000X0*%
%ADD16RoundRect,0.250000X-0.550000X-0.550000X0.550000X-0.550000X0.550000X0.550000X-0.550000X0.550000X0*%
%ADD17RoundRect,0.200000X-0.600000X-0.600000X0.600000X-0.600000X0.600000X0.600000X-0.600000X0.600000X0*%
%ADD18FreePoly0,0.000000*%
%ADD19FreePoly1,0.000000*%
%ADD20C,4.000000*%
G04 APERTURE END LIST*
D10*
%TO.C,D29*%
X149225000Y-50800000D03*
D11*
X149225000Y-43180000D03*
%TD*%
D10*
%TO.C,D8*%
X50800000Y-69850000D03*
D11*
X50800000Y-62230000D03*
%TD*%
D10*
%TO.C,D25*%
X130175000Y-50800000D03*
D11*
X130175000Y-43180000D03*
%TD*%
D12*
%TO.C,SW65*%
X231775000Y-85090000D03*
D13*
X236855000Y-85090000D03*
D12*
X241935000Y-85090000D03*
D14*
X233045000Y-82550000D03*
X239395000Y-80010000D03*
%TD*%
D10*
%TO.C,D40*%
X187960000Y-50800000D03*
D11*
X187960000Y-43180000D03*
%TD*%
D12*
%TO.C,SW7*%
X55245000Y-46990000D03*
D13*
X60325000Y-46990000D03*
D12*
X65405000Y-46990000D03*
D14*
X56515000Y-44450000D03*
X62865000Y-41910000D03*
%TD*%
D10*
%TO.C,D50*%
X107950000Y-111760000D03*
D11*
X107950000Y-104140000D03*
%TD*%
D12*
%TO.C,SW87*%
X350520000Y-85090000D03*
D13*
X355600000Y-85090000D03*
D12*
X360680000Y-85090000D03*
D14*
X351790000Y-82550000D03*
X358140000Y-80010000D03*
%TD*%
D10*
%TO.C,D75*%
X327025000Y-51435000D03*
D11*
X327025000Y-43815000D03*
%TD*%
D10*
%TO.C,D53*%
X208280000Y-88900000D03*
D11*
X208280000Y-81280000D03*
%TD*%
D12*
%TO.C,SW88*%
X351790000Y-142240000D03*
D13*
X356870000Y-142240000D03*
D12*
X361950000Y-142240000D03*
D14*
X353060000Y-139700000D03*
X359410000Y-137160000D03*
%TD*%
D10*
%TO.C,D24*%
X113030000Y-88900000D03*
D11*
X113030000Y-81280000D03*
%TD*%
D12*
%TO.C,SW49*%
X169545000Y-123190000D03*
D13*
X174625000Y-123190000D03*
D12*
X179705000Y-123190000D03*
D14*
X170815000Y-120650000D03*
X177165000Y-118110000D03*
%TD*%
D10*
%TO.C,D80*%
X262890000Y-69850000D03*
D11*
X262890000Y-62230000D03*
%TD*%
D12*
%TO.C,SW81*%
X331470000Y-66040000D03*
D13*
X336550000Y-66040000D03*
D12*
X341630000Y-66040000D03*
D14*
X332740000Y-63500000D03*
X339090000Y-60960000D03*
%TD*%
D12*
%TO.C,SW25*%
X112395000Y-46990000D03*
D13*
X117475000Y-46990000D03*
D12*
X122555000Y-46990000D03*
D14*
X113665000Y-44450000D03*
X120015000Y-41910000D03*
%TD*%
D12*
%TO.C,SW58*%
X231775000Y-46990000D03*
D13*
X236855000Y-46990000D03*
D12*
X241935000Y-46990000D03*
D14*
X233045000Y-44450000D03*
X239395000Y-41910000D03*
%TD*%
D10*
%TO.C,D5*%
X31750000Y-127000000D03*
D11*
X31750000Y-119380000D03*
%TD*%
D10*
%TO.C,D78*%
X165100000Y-108585000D03*
D11*
X165100000Y-100965000D03*
%TD*%
D10*
%TO.C,D61*%
X165100000Y-127000000D03*
D11*
X165100000Y-119380000D03*
%TD*%
D12*
%TO.C,SW15*%
X60325000Y-85090000D03*
D13*
X65405000Y-85090000D03*
D12*
X70485000Y-85090000D03*
D14*
X61595000Y-82550000D03*
X67945000Y-80010000D03*
%TD*%
D10*
%TO.C,D87*%
X222250000Y-108585000D03*
D11*
X222250000Y-100965000D03*
%TD*%
D10*
%TO.C,D79*%
X346075000Y-50800000D03*
D11*
X346075000Y-43180000D03*
%TD*%
D15*
%TO.C,D4*%
X31750000Y-100330000D03*
D11*
X31750000Y-107950000D03*
%TD*%
D10*
%TO.C,D83*%
X227330000Y-89535000D03*
D11*
X227330000Y-81915000D03*
%TD*%
D12*
%TO.C,SW53*%
X193675000Y-85090000D03*
D13*
X198755000Y-85090000D03*
D12*
X203835000Y-85090000D03*
D14*
X194945000Y-82550000D03*
X201295000Y-80010000D03*
%TD*%
D12*
%TO.C,SW37*%
X136525000Y-85090000D03*
D13*
X141605000Y-85090000D03*
D12*
X146685000Y-85090000D03*
D14*
X137795000Y-82550000D03*
X144145000Y-80010000D03*
%TD*%
D10*
%TO.C,D47*%
X189230000Y-89535000D03*
D11*
X189230000Y-81915000D03*
%TD*%
D12*
%TO.C,SW79*%
X313690000Y-142240000D03*
D13*
X318770000Y-142240000D03*
D12*
X323850000Y-142240000D03*
D14*
X314960000Y-139700000D03*
X321310000Y-137160000D03*
%TD*%
D12*
%TO.C,SW84*%
X332740000Y-142240000D03*
D13*
X337820000Y-142240000D03*
D12*
X342900000Y-142240000D03*
D14*
X334010000Y-139700000D03*
X340360000Y-137160000D03*
%TD*%
D10*
%TO.C,D57*%
X246380000Y-50800000D03*
D11*
X246380000Y-43180000D03*
%TD*%
D10*
%TO.C,D60*%
X184150000Y-127000000D03*
D11*
X184150000Y-119380000D03*
%TD*%
D12*
%TO.C,SW80*%
X331470000Y-46990000D03*
D13*
X336550000Y-46990000D03*
D12*
X341630000Y-46990000D03*
D14*
X332740000Y-44450000D03*
X339090000Y-41910000D03*
%TD*%
D10*
%TO.C,D52*%
X203200000Y-69850000D03*
D11*
X203200000Y-62230000D03*
%TD*%
D12*
%TO.C,SW45*%
X191770000Y-46990000D03*
D13*
X196850000Y-46990000D03*
D12*
X201930000Y-46990000D03*
D14*
X193040000Y-44450000D03*
X199390000Y-41910000D03*
%TD*%
D10*
%TO.C,D15*%
X74930000Y-88900000D03*
D11*
X74930000Y-81280000D03*
%TD*%
D12*
%TO.C,SW76*%
X312420000Y-46990000D03*
D13*
X317500000Y-46990000D03*
D12*
X322580000Y-46990000D03*
D14*
X313690000Y-44450000D03*
X320040000Y-41910000D03*
%TD*%
D15*
%TO.C,D63*%
X246380000Y-81280000D03*
D11*
X246380000Y-88900000D03*
%TD*%
D10*
%TO.C,D76*%
X241300000Y-69850000D03*
D11*
X241300000Y-62230000D03*
%TD*%
D16*
%TO.C,D65*%
X334010000Y-132715000D03*
D11*
X341630000Y-132715000D03*
%TD*%
D10*
%TO.C,D46*%
X184150000Y-69850000D03*
D11*
X184150000Y-62230000D03*
%TD*%
D12*
%TO.C,SW27*%
X93345000Y-104140000D03*
D13*
X98425000Y-104140000D03*
D12*
X103505000Y-104140000D03*
D14*
X94615000Y-101600000D03*
X100965000Y-99060000D03*
%TD*%
D12*
%TO.C,SW23*%
X74295000Y-123190000D03*
D13*
X79375000Y-123190000D03*
D12*
X84455000Y-123190000D03*
D14*
X75565000Y-120650000D03*
X81915000Y-118110000D03*
%TD*%
D10*
%TO.C,D32*%
X241300000Y-107950000D03*
D11*
X241300000Y-100330000D03*
%TD*%
D10*
%TO.C,D1*%
X38735000Y-50165000D03*
D11*
X38735000Y-42545000D03*
%TD*%
D10*
%TO.C,D44*%
X12700000Y-107950000D03*
D11*
X12700000Y-100330000D03*
%TD*%
D12*
%TO.C,SW20*%
X74295000Y-66040000D03*
D13*
X79375000Y-66040000D03*
D12*
X84455000Y-66040000D03*
D14*
X75565000Y-63500000D03*
X81915000Y-60960000D03*
%TD*%
D10*
%TO.C,D84*%
X365125000Y-51435000D03*
D11*
X365125000Y-43815000D03*
%TD*%
D12*
%TO.C,SW40*%
X172720000Y-46990000D03*
D13*
X177800000Y-46990000D03*
D12*
X182880000Y-46990000D03*
D14*
X173990000Y-44450000D03*
X180340000Y-41910000D03*
%TD*%
D12*
%TO.C,SW21*%
X79375000Y-85090000D03*
D13*
X84455000Y-85090000D03*
D12*
X89535000Y-85090000D03*
D14*
X80645000Y-82550000D03*
X86995000Y-80010000D03*
%TD*%
D12*
%TO.C,SW32*%
X112395000Y-104140000D03*
D13*
X117475000Y-104140000D03*
D12*
X122555000Y-104140000D03*
D14*
X113665000Y-101600000D03*
X120015000Y-99060000D03*
%TD*%
D12*
%TO.C,SW50*%
X203835000Y-142240000D03*
D13*
X208915000Y-142240000D03*
D12*
X213995000Y-142240000D03*
D14*
X205105000Y-139700000D03*
X211455000Y-137160000D03*
%TD*%
D10*
%TO.C,D31*%
X132080000Y-88900000D03*
D11*
X132080000Y-81280000D03*
%TD*%
D10*
%TO.C,D67*%
X222250000Y-127000000D03*
D11*
X222250000Y-119380000D03*
%TD*%
D10*
%TO.C,D10*%
X50800000Y-107950000D03*
D11*
X50800000Y-100330000D03*
%TD*%
D10*
%TO.C,D43*%
X17780000Y-88900000D03*
D11*
X17780000Y-81280000D03*
%TD*%
D10*
%TO.C,D41*%
X165100000Y-69850000D03*
D11*
X165100000Y-62230000D03*
%TD*%
D12*
%TO.C,SW42*%
X155575000Y-85090000D03*
D13*
X160655000Y-85090000D03*
D12*
X165735000Y-85090000D03*
D14*
X156845000Y-82550000D03*
X163195000Y-80010000D03*
%TD*%
D12*
%TO.C,SW10*%
X36195000Y-104140000D03*
D13*
X41275000Y-104140000D03*
D12*
X46355000Y-104140000D03*
D14*
X37465000Y-101600000D03*
X43815000Y-99060000D03*
%TD*%
D10*
%TO.C,D66*%
X146685000Y-127000000D03*
D11*
X146685000Y-119380000D03*
%TD*%
D12*
%TO.C,SW41*%
X150495000Y-66040000D03*
D13*
X155575000Y-66040000D03*
D12*
X160655000Y-66040000D03*
D14*
X151765000Y-63500000D03*
X158115000Y-60960000D03*
%TD*%
D10*
%TO.C,D51*%
X227330000Y-50800000D03*
D11*
X227330000Y-43180000D03*
%TD*%
D12*
%TO.C,SW34*%
X130175000Y-141605000D03*
D13*
X135255000Y-141605000D03*
D12*
X140335000Y-141605000D03*
D14*
X131445000Y-139065000D03*
X137795000Y-136525000D03*
%TD*%
D12*
%TO.C,SW77*%
X312420000Y-66040000D03*
D13*
X317500000Y-66040000D03*
D12*
X322580000Y-66040000D03*
D14*
X313690000Y-63500000D03*
X320040000Y-60960000D03*
%TD*%
D10*
%TO.C,D6*%
X31750000Y-146050000D03*
D11*
X31750000Y-138430000D03*
%TD*%
D10*
%TO.C,D36*%
X146050000Y-69850000D03*
D11*
X146050000Y-62230000D03*
%TD*%
D10*
%TO.C,D28*%
X203200000Y-107950000D03*
D11*
X203200000Y-100330000D03*
%TD*%
D12*
%TO.C,SW19*%
X93345000Y-46990000D03*
D13*
X98425000Y-46990000D03*
D12*
X103505000Y-46990000D03*
D14*
X94615000Y-44450000D03*
X100965000Y-41910000D03*
%TD*%
D12*
%TO.C,SW2*%
X17145000Y-66040000D03*
D13*
X22225000Y-66040000D03*
D12*
X27305000Y-66040000D03*
D14*
X18415000Y-63500000D03*
X24765000Y-60960000D03*
%TD*%
D12*
%TO.C,SW13*%
X74295000Y-46990000D03*
D13*
X79375000Y-46990000D03*
D12*
X84455000Y-46990000D03*
D14*
X75565000Y-44450000D03*
X81915000Y-41910000D03*
%TD*%
D10*
%TO.C,D19*%
X107950000Y-50800000D03*
D11*
X107950000Y-43180000D03*
%TD*%
D10*
%TO.C,D2*%
X31750000Y-69850000D03*
D11*
X31750000Y-62230000D03*
%TD*%
D12*
%TO.C,SW59*%
X207645000Y-66040000D03*
D13*
X212725000Y-66040000D03*
D12*
X217805000Y-66040000D03*
D14*
X208915000Y-63500000D03*
X215265000Y-60960000D03*
%TD*%
D12*
%TO.C,SW29*%
X134620000Y-46990000D03*
D13*
X139700000Y-46990000D03*
D12*
X144780000Y-46990000D03*
D14*
X135890000Y-44450000D03*
X142240000Y-41910000D03*
%TD*%
D10*
%TO.C,D33*%
X127000000Y-108585000D03*
D11*
X127000000Y-100965000D03*
%TD*%
D10*
%TO.C,D85*%
X281940000Y-69850000D03*
D11*
X281940000Y-62230000D03*
%TD*%
D12*
%TO.C,SW86*%
X350520000Y-66040000D03*
D13*
X355600000Y-66040000D03*
D12*
X360680000Y-66040000D03*
D14*
X351790000Y-63500000D03*
X358140000Y-60960000D03*
%TD*%
D12*
%TO.C,SW55*%
X188595000Y-123190000D03*
D13*
X193675000Y-123190000D03*
D12*
X198755000Y-123190000D03*
D14*
X189865000Y-120650000D03*
X196215000Y-118110000D03*
%TD*%
D12*
%TO.C,SW78*%
X312420000Y-85090000D03*
D13*
X317500000Y-85090000D03*
D12*
X322580000Y-85090000D03*
D14*
X313690000Y-82550000D03*
X320040000Y-80010000D03*
%TD*%
D10*
%TO.C,D21*%
X93980000Y-88900000D03*
D11*
X93980000Y-81280000D03*
%TD*%
D12*
%TO.C,SW46*%
X169545000Y-66040000D03*
D13*
X174625000Y-66040000D03*
D12*
X179705000Y-66040000D03*
D14*
X170815000Y-63500000D03*
X177165000Y-60960000D03*
%TD*%
D10*
%TO.C,D20*%
X88900000Y-69850000D03*
D11*
X88900000Y-62230000D03*
%TD*%
D12*
%TO.C,SW51*%
X212725000Y-46990000D03*
D13*
X217805000Y-46990000D03*
D12*
X222885000Y-46990000D03*
D14*
X213995000Y-44450000D03*
X220345000Y-41910000D03*
%TD*%
D12*
%TO.C,SW54*%
X188595000Y-104140000D03*
D13*
X193675000Y-104140000D03*
D12*
X198755000Y-104140000D03*
D14*
X189865000Y-101600000D03*
X196215000Y-99060000D03*
%TD*%
D12*
%TO.C,SW44*%
X150495000Y-123190000D03*
D13*
X155575000Y-123190000D03*
D12*
X160655000Y-123190000D03*
D14*
X151765000Y-120650000D03*
X158115000Y-118110000D03*
%TD*%
D10*
%TO.C,D16*%
X69850000Y-127000000D03*
D11*
X69850000Y-119380000D03*
%TD*%
D12*
%TO.C,SW63*%
X250825000Y-46990000D03*
D13*
X255905000Y-46990000D03*
D12*
X260985000Y-46990000D03*
D14*
X252095000Y-44450000D03*
X258445000Y-41910000D03*
%TD*%
D12*
%TO.C,SW66*%
X226695000Y-104140000D03*
D13*
X231775000Y-104140000D03*
D12*
X236855000Y-104140000D03*
D14*
X227965000Y-101600000D03*
X234315000Y-99060000D03*
%TD*%
D12*
%TO.C,SW48*%
X169545000Y-104140000D03*
D13*
X174625000Y-104140000D03*
D12*
X179705000Y-104140000D03*
D14*
X170815000Y-101600000D03*
X177165000Y-99060000D03*
%TD*%
D12*
%TO.C,SW4*%
X17145000Y-104140000D03*
D13*
X22225000Y-104140000D03*
D12*
X27305000Y-104140000D03*
D14*
X18415000Y-101600000D03*
X24765000Y-99060000D03*
%TD*%
D12*
%TO.C,SW1*%
X17145000Y-46990000D03*
D13*
X22225000Y-46990000D03*
D12*
X27305000Y-46990000D03*
D14*
X18415000Y-44450000D03*
X24765000Y-41910000D03*
%TD*%
D12*
%TO.C,SW69*%
X269875000Y-46990000D03*
D13*
X274955000Y-46990000D03*
D12*
X280035000Y-46990000D03*
D14*
X271145000Y-44450000D03*
X277495000Y-41910000D03*
%TD*%
D10*
%TO.C,D23*%
X88900000Y-106680000D03*
D11*
X88900000Y-99060000D03*
%TD*%
D10*
%TO.C,D3*%
X37465000Y-88900000D03*
D11*
X37465000Y-81280000D03*
%TD*%
D12*
%TO.C,SW75*%
X269875000Y-93345000D03*
D13*
X274955000Y-93345000D03*
D12*
X280035000Y-93345000D03*
D14*
X271145000Y-90805000D03*
X277495000Y-88265000D03*
%TD*%
D12*
%TO.C,SW9*%
X41275000Y-85090000D03*
D13*
X46355000Y-85090000D03*
D12*
X51435000Y-85090000D03*
D14*
X42545000Y-82550000D03*
X48895000Y-80010000D03*
%TD*%
D12*
%TO.C,SW33*%
X112395000Y-123190000D03*
D13*
X117475000Y-123190000D03*
D12*
X122555000Y-123190000D03*
D14*
X113665000Y-120650000D03*
X120015000Y-118110000D03*
%TD*%
D12*
%TO.C,SW52*%
X188595000Y-66040000D03*
D13*
X193675000Y-66040000D03*
D12*
X198755000Y-66040000D03*
D14*
X189865000Y-63500000D03*
X196215000Y-60960000D03*
%TD*%
D12*
%TO.C,SW6*%
X17145000Y-142240000D03*
D13*
X22225000Y-142240000D03*
D12*
X27305000Y-142240000D03*
D14*
X18415000Y-139700000D03*
X24765000Y-137160000D03*
%TD*%
D10*
%TO.C,D64*%
X256540000Y-127000000D03*
D11*
X256540000Y-119380000D03*
%TD*%
D12*
%TO.C,SW70*%
X245745000Y-66040000D03*
D13*
X250825000Y-66040000D03*
D12*
X255905000Y-66040000D03*
D14*
X247015000Y-63500000D03*
X253365000Y-60960000D03*
%TD*%
D10*
%TO.C,D9*%
X55880000Y-88900000D03*
D11*
X55880000Y-81280000D03*
%TD*%
D10*
%TO.C,D55*%
X107950000Y-127000000D03*
D11*
X107950000Y-119380000D03*
%TD*%
D12*
%TO.C,SW67*%
X226695000Y-123190000D03*
D13*
X231775000Y-123190000D03*
D12*
X236855000Y-123190000D03*
D14*
X227965000Y-120650000D03*
X234315000Y-118110000D03*
%TD*%
D10*
%TO.C,D30*%
X127000000Y-69850000D03*
D11*
X127000000Y-62230000D03*
%TD*%
D12*
%TO.C,SW12*%
X36195000Y-142240000D03*
D13*
X41275000Y-142240000D03*
D12*
X46355000Y-142240000D03*
D14*
X37465000Y-139700000D03*
X43815000Y-137160000D03*
%TD*%
D10*
%TO.C,D49*%
X12700000Y-69850000D03*
D11*
X12700000Y-62230000D03*
%TD*%
D10*
%TO.C,D70*%
X328930000Y-146685000D03*
D11*
X328930000Y-139065000D03*
%TD*%
D10*
%TO.C,D35*%
X168275000Y-50800000D03*
D11*
X168275000Y-43180000D03*
%TD*%
D12*
%TO.C,SW85*%
X350520000Y-46990000D03*
D13*
X355600000Y-46990000D03*
D12*
X360680000Y-46990000D03*
D14*
X351790000Y-44450000D03*
X358140000Y-41910000D03*
%TD*%
D12*
%TO.C,SW26*%
X93345000Y-66040000D03*
D13*
X98425000Y-66040000D03*
D12*
X103505000Y-66040000D03*
D14*
X94615000Y-63500000D03*
X100965000Y-60960000D03*
%TD*%
D12*
%TO.C,SW18*%
X55245000Y-142240000D03*
D13*
X60325000Y-142240000D03*
D12*
X65405000Y-142240000D03*
D14*
X56515000Y-139700000D03*
X62865000Y-137160000D03*
%TD*%
D10*
%TO.C,D74*%
X347980000Y-146685000D03*
D11*
X347980000Y-139065000D03*
%TD*%
D12*
%TO.C,SW43*%
X150495000Y-104140000D03*
D13*
X155575000Y-104140000D03*
D12*
X160655000Y-104140000D03*
D14*
X151765000Y-101600000D03*
X158115000Y-99060000D03*
%TD*%
D12*
%TO.C,SW61*%
X207645000Y-104140000D03*
D13*
X212725000Y-104140000D03*
D12*
X217805000Y-104140000D03*
D14*
X208915000Y-101600000D03*
X215265000Y-99060000D03*
%TD*%
D10*
%TO.C,D18*%
X69850000Y-107950000D03*
D11*
X69850000Y-100330000D03*
%TD*%
D12*
%TO.C,SW73*%
X260985000Y-123190000D03*
D13*
X266065000Y-123190000D03*
D12*
X271145000Y-123190000D03*
D14*
X262255000Y-120650000D03*
X268605000Y-118110000D03*
%TD*%
D12*
%TO.C,SW36*%
X131445000Y-66040000D03*
D13*
X136525000Y-66040000D03*
D12*
X141605000Y-66040000D03*
D14*
X132715000Y-63500000D03*
X139065000Y-60960000D03*
%TD*%
D12*
%TO.C,SW47*%
X174625000Y-85090000D03*
D13*
X179705000Y-85090000D03*
D12*
X184785000Y-85090000D03*
D14*
X175895000Y-82550000D03*
X182245000Y-80010000D03*
%TD*%
D12*
%TO.C,SW28*%
X93345000Y-123190000D03*
D13*
X98425000Y-123190000D03*
D12*
X103505000Y-123190000D03*
D14*
X94615000Y-120650000D03*
X100965000Y-118110000D03*
%TD*%
D12*
%TO.C,SW5*%
X17145000Y-123190000D03*
D13*
X22225000Y-123190000D03*
D12*
X27305000Y-123190000D03*
D14*
X18415000Y-120650000D03*
X24765000Y-118110000D03*
%TD*%
D10*
%TO.C,D26*%
X107950000Y-69850000D03*
D11*
X107950000Y-62230000D03*
%TD*%
D12*
%TO.C,SW11*%
X36195000Y-123190000D03*
D13*
X41275000Y-123190000D03*
D12*
X46355000Y-123190000D03*
D14*
X37465000Y-120650000D03*
X43815000Y-118110000D03*
%TD*%
D12*
%TO.C,SW57*%
X207645000Y-123190000D03*
D13*
X212725000Y-123190000D03*
D12*
X217805000Y-123190000D03*
D14*
X208915000Y-120650000D03*
X215265000Y-118110000D03*
%TD*%
D12*
%TO.C,SW68*%
X260985000Y-142240000D03*
D13*
X266065000Y-142240000D03*
D12*
X271145000Y-142240000D03*
D14*
X262255000Y-139700000D03*
X268605000Y-137160000D03*
%TD*%
D10*
%TO.C,D7*%
X69850000Y-50800000D03*
D11*
X69850000Y-43180000D03*
%TD*%
D12*
%TO.C,SW24*%
X98425000Y-85090000D03*
D13*
X103505000Y-85090000D03*
D12*
X108585000Y-85090000D03*
D14*
X99695000Y-82550000D03*
X106045000Y-80010000D03*
%TD*%
D10*
%TO.C,D48*%
X284480000Y-99695000D03*
D11*
X284480000Y-92075000D03*
%TD*%
D12*
%TO.C,SW64*%
X226695000Y-66040000D03*
D13*
X231775000Y-66040000D03*
D12*
X236855000Y-66040000D03*
D14*
X227965000Y-63500000D03*
X234315000Y-60960000D03*
%TD*%
D10*
%TO.C,D72*%
X237490000Y-142240000D03*
D11*
X237490000Y-134620000D03*
%TD*%
D10*
%TO.C,D59*%
X241300000Y-127000000D03*
D11*
X241300000Y-119380000D03*
%TD*%
D12*
%TO.C,SW74*%
X267335000Y-66040000D03*
D13*
X272415000Y-66040000D03*
D12*
X277495000Y-66040000D03*
D14*
X268605000Y-63500000D03*
X274955000Y-60960000D03*
%TD*%
D10*
%TO.C,D45*%
X206375000Y-50800000D03*
D11*
X206375000Y-43180000D03*
%TD*%
D10*
%TO.C,D58*%
X222250000Y-69850000D03*
D11*
X222250000Y-62230000D03*
%TD*%
D12*
%TO.C,SW35*%
X153670000Y-46990000D03*
D13*
X158750000Y-46990000D03*
D12*
X163830000Y-46990000D03*
D14*
X154940000Y-44450000D03*
X161290000Y-41910000D03*
%TD*%
D10*
%TO.C,D86*%
X365125000Y-88900000D03*
D11*
X365125000Y-81280000D03*
%TD*%
D10*
%TO.C,D54*%
X144780000Y-146050000D03*
D11*
X144780000Y-138430000D03*
%TD*%
D12*
%TO.C,SW22*%
X74295000Y-104140000D03*
D13*
X79375000Y-104140000D03*
D12*
X84455000Y-104140000D03*
D14*
X75565000Y-101600000D03*
X81915000Y-99060000D03*
%TD*%
D10*
%TO.C,D82*%
X146050000Y-107950000D03*
D11*
X146050000Y-100330000D03*
%TD*%
D17*
%TO.C,A1*%
X287020000Y-38887500D03*
D11*
X287020000Y-41427500D03*
D18*
X287020000Y-43967500D03*
D11*
X287020000Y-46507500D03*
X287020000Y-49047500D03*
X287020000Y-51587500D03*
X287020000Y-54127500D03*
D18*
X287020000Y-56667500D03*
D11*
X287020000Y-59207500D03*
X287020000Y-61747500D03*
X287020000Y-64287500D03*
X287020000Y-66827500D03*
D18*
X287020000Y-69367500D03*
D11*
X287020000Y-71907500D03*
X287020000Y-74447500D03*
X287020000Y-76987500D03*
X287020000Y-79527500D03*
D18*
X287020000Y-82067500D03*
D11*
X287020000Y-84607500D03*
X287020000Y-87147500D03*
X304800000Y-87147500D03*
X304800000Y-84607500D03*
D19*
X304800000Y-82067500D03*
D11*
X304800000Y-79527500D03*
X304800000Y-76987500D03*
X304800000Y-74447500D03*
X304800000Y-71907500D03*
D19*
X304800000Y-69367500D03*
D11*
X304800000Y-66827500D03*
X304800000Y-64287500D03*
X304800000Y-61747500D03*
X304800000Y-59207500D03*
D19*
X304800000Y-56667500D03*
D11*
X304800000Y-54127500D03*
X304800000Y-51587500D03*
X304800000Y-49047500D03*
X304800000Y-46507500D03*
D19*
X304800000Y-43967500D03*
D11*
X304800000Y-41427500D03*
X304800000Y-38887500D03*
%TD*%
D10*
%TO.C,D56*%
X218440000Y-144145000D03*
D11*
X218440000Y-136525000D03*
%TD*%
D10*
%TO.C,D12*%
X50800000Y-145415000D03*
D11*
X50800000Y-137795000D03*
%TD*%
D12*
%TO.C,SW3*%
X22225000Y-85090000D03*
D13*
X27305000Y-85090000D03*
D12*
X32385000Y-85090000D03*
D14*
X23495000Y-82550000D03*
X29845000Y-80010000D03*
%TD*%
D12*
%TO.C,SW62*%
X241935000Y-142240000D03*
D13*
X247015000Y-142240000D03*
D12*
X252095000Y-142240000D03*
D14*
X243205000Y-139700000D03*
X249555000Y-137160000D03*
%TD*%
D12*
%TO.C,SW16*%
X55245000Y-104140000D03*
D13*
X60325000Y-104140000D03*
D12*
X65405000Y-104140000D03*
D14*
X56515000Y-101600000D03*
X62865000Y-99060000D03*
%TD*%
D10*
%TO.C,D17*%
X88900000Y-127000000D03*
D11*
X88900000Y-119380000D03*
%TD*%
D10*
%TO.C,D42*%
X170180000Y-88900000D03*
D11*
X170180000Y-81280000D03*
%TD*%
D10*
%TO.C,D14*%
X69850000Y-69850000D03*
D11*
X69850000Y-62230000D03*
%TD*%
D10*
%TO.C,D34*%
X327025000Y-69850000D03*
D11*
X327025000Y-62230000D03*
%TD*%
D12*
%TO.C,SW60*%
X212725000Y-85090000D03*
D13*
X217805000Y-85090000D03*
D12*
X222885000Y-85090000D03*
D14*
X213995000Y-82550000D03*
X220345000Y-80010000D03*
%TD*%
D12*
%TO.C,SW17*%
X55245000Y-123190000D03*
D13*
X60325000Y-123190000D03*
D12*
X65405000Y-123190000D03*
D14*
X56515000Y-120650000D03*
X62865000Y-118110000D03*
%TD*%
D10*
%TO.C,D27*%
X203200000Y-126365000D03*
D11*
X203200000Y-118745000D03*
%TD*%
D10*
%TO.C,D77*%
X327025000Y-88900000D03*
D11*
X327025000Y-81280000D03*
%TD*%
D12*
%TO.C,SW8*%
X36195000Y-66040000D03*
D13*
X41275000Y-66040000D03*
D12*
X46355000Y-66040000D03*
D14*
X37465000Y-63500000D03*
X43815000Y-60960000D03*
%TD*%
D12*
%TO.C,SW82*%
X331470000Y-85090000D03*
D13*
X336550000Y-85090000D03*
D12*
X341630000Y-85090000D03*
D14*
X332740000Y-82550000D03*
X339090000Y-80010000D03*
%TD*%
D12*
%TO.C,SW72*%
X245745000Y-104140000D03*
D13*
X250825000Y-104140000D03*
D12*
X255905000Y-104140000D03*
D14*
X247015000Y-101600000D03*
X253365000Y-99060000D03*
%TD*%
D12*
%TO.C,SW38*%
X131445000Y-104140000D03*
D13*
X136525000Y-104140000D03*
D12*
X141605000Y-104140000D03*
D14*
X132715000Y-101600000D03*
X139065000Y-99060000D03*
%TD*%
D12*
%TO.C,SW14*%
X55245000Y-66040000D03*
D13*
X60325000Y-66040000D03*
D12*
X65405000Y-66040000D03*
D14*
X56515000Y-63500000D03*
X62865000Y-60960000D03*
%TD*%
D12*
%TO.C,SW30*%
X112395000Y-66040000D03*
D13*
X117475000Y-66040000D03*
D12*
X122555000Y-66040000D03*
D14*
X113665000Y-63500000D03*
X120015000Y-60960000D03*
%TD*%
D10*
%TO.C,D81*%
X346075000Y-88900000D03*
D11*
X346075000Y-81280000D03*
%TD*%
D10*
%TO.C,D38*%
X12700000Y-127000000D03*
D11*
X12700000Y-119380000D03*
%TD*%
D12*
%TO.C,SW39*%
X131445000Y-123190000D03*
D13*
X136525000Y-123190000D03*
D12*
X141605000Y-123190000D03*
D14*
X132715000Y-120650000D03*
X139065000Y-118110000D03*
%TD*%
D10*
%TO.C,D69*%
X260985000Y-107950000D03*
D11*
X260985000Y-100330000D03*
%TD*%
D10*
%TO.C,D13*%
X88900000Y-50800000D03*
D11*
X88900000Y-43180000D03*
%TD*%
D10*
%TO.C,D39*%
X13335000Y-146050000D03*
D11*
X13335000Y-138430000D03*
%TD*%
D12*
%TO.C,SW71*%
X250825000Y-85090000D03*
D13*
X255905000Y-85090000D03*
D12*
X260985000Y-85090000D03*
D14*
X252095000Y-82550000D03*
X258445000Y-80010000D03*
%TD*%
D10*
%TO.C,D22*%
X127000000Y-126365000D03*
D11*
X127000000Y-118745000D03*
%TD*%
D12*
%TO.C,SW31*%
X117475000Y-85090000D03*
D13*
X122555000Y-85090000D03*
D12*
X127635000Y-85090000D03*
D14*
X118745000Y-82550000D03*
X125095000Y-80010000D03*
%TD*%
D10*
%TO.C,D11*%
X50800000Y-127000000D03*
D11*
X50800000Y-119380000D03*
%TD*%
D20*
%TO.C,S3*%
X85248750Y-134620000D03*
D13*
X85248750Y-149860000D03*
D20*
X185261250Y-134620000D03*
D13*
X185261250Y-149860000D03*
%TD*%
D10*
%TO.C,D37*%
X151765000Y-88900000D03*
D11*
X151765000Y-81280000D03*
%TD*%
D12*
%TO.C,SW56*%
X222885000Y-142240000D03*
D13*
X227965000Y-142240000D03*
D12*
X233045000Y-142240000D03*
D14*
X224155000Y-139700000D03*
X230505000Y-137160000D03*
%TD*%
D10*
%TO.C,D71*%
X256540000Y-146050000D03*
D11*
X256540000Y-138430000D03*
%TD*%
D10*
%TO.C,D62*%
X265430000Y-50800000D03*
D11*
X265430000Y-43180000D03*
%TD*%
D12*
%TO.C,SW83*%
X332740000Y-123190000D03*
D13*
X337820000Y-123190000D03*
D12*
X342900000Y-123190000D03*
D14*
X334010000Y-120650000D03*
X340360000Y-118110000D03*
%TD*%
D10*
%TO.C,D73*%
X265430000Y-92710000D03*
D11*
X265430000Y-85090000D03*
%TD*%
D10*
%TO.C,D68*%
X283210000Y-50165000D03*
D11*
X283210000Y-42545000D03*
%TD*%
M02*
