M48
; DRILL file KiCad 10.0.6 date 2026-10-03T22:04:00
; FORMAT={-:-/ absolute / metric / decimal}
; #@! TF.CreationDate,2026-10-03T22:04:00-03:00
; #@! TF.GenerationSoftware,Kicad,Pcbnew,10.0.6
; #@! TF.FileFunction,NonPlated,1,2,NPTH
FMAT,2
METRIC
; #@! TA.AperFunction,NonPlated,NPTH,ComponentDrill
T1C1.750
; #@! TA.AperFunction,NonPlated,NPTH,ComponentDrill
T2C3.988
%
G90
G05
T1
X17.145Y-46.99
X17.145Y-66.04
X17.145Y-104.14
X17.145Y-123.19
X17.145Y-142.24
X22.225Y-85.09
X27.305Y-46.99
X27.305Y-66.04
X27.305Y-104.14
X27.305Y-123.19
X27.305Y-142.24
X32.385Y-85.09
X36.195Y-66.04
X36.195Y-104.14
X36.195Y-123.19
X36.195Y-142.24
X41.275Y-85.09
X46.355Y-66.04
X46.355Y-104.14
X46.355Y-123.19
X46.355Y-142.24
X51.435Y-85.09
X55.245Y-46.99
X55.245Y-66.04
X55.245Y-104.14
X55.245Y-123.19
X55.245Y-142.24
X60.325Y-85.09
X65.405Y-46.99
X65.405Y-66.04
X65.405Y-104.14
X65.405Y-123.19
X65.405Y-142.24
X70.485Y-85.09
X74.295Y-46.99
X74.295Y-66.04
X74.295Y-104.14
X74.295Y-123.19
X79.375Y-85.09
X84.455Y-46.99
X84.455Y-66.04
X84.455Y-104.14
X84.455Y-123.19
X89.535Y-85.09
X93.345Y-46.99
X93.345Y-66.04
X93.345Y-104.14
X93.345Y-123.19
X98.425Y-85.09
X103.505Y-46.99
X103.505Y-66.04
X103.505Y-104.14
X103.505Y-123.19
X108.585Y-85.09
X112.395Y-46.99
X112.395Y-66.04
X112.395Y-104.14
X112.395Y-123.19
X117.475Y-85.09
X122.555Y-46.99
X122.555Y-66.04
X122.555Y-104.14
X122.555Y-123.19
X127.635Y-85.09
X130.175Y-141.605
X131.445Y-66.04
X131.445Y-104.14
X131.445Y-123.19
X134.62Y-46.99
X136.525Y-85.09
X140.335Y-141.605
X141.605Y-66.04
X141.605Y-104.14
X141.605Y-123.19
X144.78Y-46.99
X146.685Y-85.09
X150.495Y-66.04
X150.495Y-104.14
X150.495Y-123.19
X153.67Y-46.99
X155.575Y-85.09
X160.655Y-66.04
X160.655Y-104.14
X160.655Y-123.19
X163.83Y-46.99
X165.735Y-85.09
X169.545Y-66.04
X169.545Y-104.14
X169.545Y-123.19
X172.72Y-46.99
X174.625Y-85.09
X179.705Y-66.04
X179.705Y-104.14
X179.705Y-123.19
X182.88Y-46.99
X184.785Y-85.09
X188.595Y-66.04
X188.595Y-104.14
X188.595Y-123.19
X191.77Y-46.99
X193.675Y-85.09
X198.755Y-66.04
X198.755Y-104.14
X198.755Y-123.19
X201.93Y-46.99
X203.835Y-85.09
X203.835Y-142.24
X207.645Y-66.04
X207.645Y-104.14
X207.645Y-123.19
X212.725Y-46.99
X212.725Y-85.09
X213.995Y-142.24
X217.805Y-66.04
X217.805Y-104.14
X217.805Y-123.19
X222.885Y-46.99
X222.885Y-85.09
X222.885Y-142.24
X226.695Y-66.04
X226.695Y-104.14
X226.695Y-123.19
X231.775Y-46.99
X231.775Y-85.09
X233.045Y-142.24
X236.855Y-66.04
X236.855Y-104.14
X236.855Y-123.19
X241.935Y-46.99
X241.935Y-85.09
X241.935Y-142.24
X245.745Y-66.04
X245.745Y-104.14
X250.825Y-46.99
X250.825Y-85.09
X252.095Y-142.24
X255.905Y-66.04
X255.905Y-104.14
X260.985Y-46.99
X260.985Y-85.09
X260.985Y-123.19
X260.985Y-142.24
X267.335Y-66.04
X269.875Y-46.99
X269.875Y-93.345
X271.145Y-123.19
X271.145Y-142.24
X277.495Y-66.04
X280.035Y-46.99
X280.035Y-93.345
X312.42Y-46.99
X312.42Y-66.04
X312.42Y-85.09
X313.69Y-142.24
X322.58Y-46.99
X322.58Y-66.04
X322.58Y-85.09
X323.85Y-142.24
X331.47Y-46.99
X331.47Y-66.04
X331.47Y-85.09
X332.74Y-123.19
X332.74Y-142.24
X341.63Y-46.99
X341.63Y-66.04
X341.63Y-85.09
X342.9Y-123.19
X342.9Y-142.24
X350.52Y-46.99
X350.52Y-66.04
X350.52Y-85.09
X351.79Y-142.24
X360.68Y-46.99
X360.68Y-66.04
X360.68Y-85.09
X361.95Y-142.24
T2
X22.225Y-46.99
X22.225Y-66.04
X22.225Y-104.14
X22.225Y-123.19
X22.225Y-142.24
X27.305Y-85.09
X41.275Y-66.04
X41.275Y-104.14
X41.275Y-123.19
X41.275Y-142.24
X46.355Y-85.09
X60.325Y-46.99
X60.325Y-66.04
X60.325Y-104.14
X60.325Y-123.19
X60.325Y-142.24
X65.405Y-85.09
X79.375Y-46.99
X79.375Y-66.04
X79.375Y-104.14
X79.375Y-123.19
X84.455Y-85.09
X85.249Y-149.86
X98.425Y-46.99
X98.425Y-66.04
X98.425Y-104.14
X98.425Y-123.19
X103.505Y-85.09
X117.475Y-46.99
X117.475Y-66.04
X117.475Y-104.14
X117.475Y-123.19
X122.555Y-85.09
X135.255Y-141.605
X136.525Y-66.04
X136.525Y-104.14
X136.525Y-123.19
X139.7Y-46.99
X141.605Y-85.09
X155.575Y-66.04
X155.575Y-104.14
X155.575Y-123.19
X158.75Y-46.99
X160.655Y-85.09
X174.625Y-66.04
X174.625Y-104.14
X174.625Y-123.19
X177.8Y-46.99
X179.705Y-85.09
X185.261Y-149.86
X193.675Y-66.04
X193.675Y-104.14
X193.675Y-123.19
X196.85Y-46.99
X198.755Y-85.09
X208.915Y-142.24
X212.725Y-66.04
X212.725Y-104.14
X212.725Y-123.19
X217.805Y-46.99
X217.805Y-85.09
X227.965Y-142.24
X231.775Y-66.04
X231.775Y-104.14
X231.775Y-123.19
X236.855Y-46.99
X236.855Y-85.09
X247.015Y-142.24
X250.825Y-66.04
X250.825Y-104.14
X255.905Y-46.99
X255.905Y-85.09
X266.065Y-123.19
X266.065Y-142.24
X272.415Y-66.04
X274.955Y-46.99
X274.955Y-93.345
X317.5Y-46.99
X317.5Y-66.04
X317.5Y-85.09
X318.77Y-142.24
X336.55Y-46.99
X336.55Y-66.04
X336.55Y-85.09
X337.82Y-123.19
X337.82Y-142.24
X355.6Y-46.99
X355.6Y-66.04
X355.6Y-85.09
X356.87Y-142.24
M30
