M48
; DRILL file KiCad 10.0.6 date 2026-10-03T22:04:00
; FORMAT={-:-/ absolute / metric / decimal}
; #@! TF.CreationDate,2026-10-03T22:04:00-03:00
; #@! TF.GenerationSoftware,Kicad,Pcbnew,10.0.6
; #@! TF.FileFunction,Plated,1,2,PTH
FMAT,2
METRIC
; #@! TA.AperFunction,Plated,PTH,ViaDrill
T1C0.300
; #@! TA.AperFunction,Plated,PTH,ComponentDrill
T2C0.800
; #@! TA.AperFunction,Plated,PTH,ComponentDrill
T3C1.000
; #@! TA.AperFunction,Plated,PTH,ComponentDrill
T4C1.524
; #@! TA.AperFunction,Plated,PTH,ComponentDrill
T5C3.048
%
G90
G05
T1
X16.036Y-88.9
X18.878Y-109.166
X86.476Y-115.184
X112.458Y-112.946
X134.327Y-114.577
X151.606Y-111.802
X153.539Y-113.591
X154.573Y-95.224
X166.057Y-105.658
X171.902Y-70.997
X177.878Y-106.803
X189.611Y-115.772
X200.617Y-110.622
X215.212Y-127.959
X219.699Y-81.663
X220.649Y-90.9
X223.142Y-125.188
X232.863Y-100.462
X246.947Y-133.854
X249.341Y-83.423
X253.594Y-130.857
X254.862Y-78.325
X260.759Y-132.117
X271.771Y-97.156
X286.128Y-58.042
X297.069Y-70.593
X300.694Y-75.718
X300.831Y-128.736
X314.332Y-87.147
X325.28Y-75.84
T2
X12.7Y-62.23
X12.7Y-69.85
X12.7Y-100.33
X12.7Y-107.95
X12.7Y-119.38
X12.7Y-127.0
X13.335Y-138.43
X13.335Y-146.05
X17.78Y-81.28
X17.78Y-88.9
X31.75Y-62.23
X31.75Y-69.85
X31.75Y-100.33
X31.75Y-107.95
X31.75Y-119.38
X31.75Y-127.0
X31.75Y-138.43
X31.75Y-146.05
X37.465Y-81.28
X37.465Y-88.9
X38.735Y-42.545
X38.735Y-50.165
X50.8Y-62.23
X50.8Y-69.85
X50.8Y-100.33
X50.8Y-107.95
X50.8Y-119.38
X50.8Y-127.0
X50.8Y-137.795
X50.8Y-145.415
X55.88Y-81.28
X55.88Y-88.9
X69.85Y-43.18
X69.85Y-50.8
X69.85Y-62.23
X69.85Y-69.85
X69.85Y-100.33
X69.85Y-107.95
X69.85Y-119.38
X69.85Y-127.0
X74.93Y-81.28
X74.93Y-88.9
X88.9Y-43.18
X88.9Y-50.8
X88.9Y-62.23
X88.9Y-69.85
X88.9Y-99.06
X88.9Y-106.68
X88.9Y-119.38
X88.9Y-127.0
X93.98Y-81.28
X93.98Y-88.9
X107.95Y-43.18
X107.95Y-50.8
X107.95Y-62.23
X107.95Y-69.85
X107.95Y-104.14
X107.95Y-111.76
X107.95Y-119.38
X107.95Y-127.0
X113.03Y-81.28
X113.03Y-88.9
X127.0Y-62.23
X127.0Y-69.85
X127.0Y-100.965
X127.0Y-108.585
X127.0Y-118.745
X127.0Y-126.365
X130.175Y-43.18
X130.175Y-50.8
X132.08Y-81.28
X132.08Y-88.9
X144.78Y-138.43
X144.78Y-146.05
X146.05Y-62.23
X146.05Y-69.85
X146.05Y-100.33
X146.05Y-107.95
X146.685Y-119.38
X146.685Y-127.0
X149.225Y-43.18
X149.225Y-50.8
X151.765Y-81.28
X151.765Y-88.9
X165.1Y-62.23
X165.1Y-69.85
X165.1Y-100.965
X165.1Y-108.585
X165.1Y-119.38
X165.1Y-127.0
X168.275Y-43.18
X168.275Y-50.8
X170.18Y-81.28
X170.18Y-88.9
X184.15Y-62.23
X184.15Y-69.85
X184.15Y-119.38
X184.15Y-127.0
X187.96Y-43.18
X187.96Y-50.8
X189.23Y-81.915
X189.23Y-89.535
X203.2Y-62.23
X203.2Y-69.85
X203.2Y-100.33
X203.2Y-107.95
X203.2Y-118.745
X203.2Y-126.365
X206.375Y-43.18
X206.375Y-50.8
X208.28Y-81.28
X208.28Y-88.9
X218.44Y-136.525
X218.44Y-144.145
X222.25Y-62.23
X222.25Y-69.85
X222.25Y-100.965
X222.25Y-108.585
X222.25Y-119.38
X222.25Y-127.0
X227.33Y-43.18
X227.33Y-50.8
X227.33Y-81.915
X227.33Y-89.535
X237.49Y-134.62
X237.49Y-142.24
X241.3Y-62.23
X241.3Y-69.85
X241.3Y-100.33
X241.3Y-107.95
X241.3Y-119.38
X241.3Y-127.0
X246.38Y-43.18
X246.38Y-50.8
X246.38Y-81.28
X246.38Y-88.9
X256.54Y-119.38
X256.54Y-127.0
X256.54Y-138.43
X256.54Y-146.05
X260.985Y-100.33
X260.985Y-107.95
X262.89Y-62.23
X262.89Y-69.85
X265.43Y-43.18
X265.43Y-50.8
X265.43Y-85.09
X265.43Y-92.71
X281.94Y-62.23
X281.94Y-69.85
X283.21Y-42.545
X283.21Y-50.165
X284.48Y-92.075
X284.48Y-99.695
X327.025Y-43.815
X327.025Y-51.435
X327.025Y-62.23
X327.025Y-69.85
X327.025Y-81.28
X327.025Y-88.9
X328.93Y-139.065
X328.93Y-146.685
X334.01Y-132.715
X341.63Y-132.715
X346.075Y-43.18
X346.075Y-50.8
X346.075Y-81.28
X346.075Y-88.9
X347.98Y-139.065
X347.98Y-146.685
X365.125Y-43.815
X365.125Y-51.435
X365.125Y-81.28
X365.125Y-88.9
T3
X287.02Y-38.887
X287.02Y-41.427
X287.02Y-43.968
X287.02Y-46.508
X287.02Y-49.047
X287.02Y-51.587
X287.02Y-54.127
X287.02Y-56.667
X287.02Y-59.207
X287.02Y-61.747
X287.02Y-64.287
X287.02Y-66.828
X287.02Y-69.367
X287.02Y-71.907
X287.02Y-74.447
X287.02Y-76.987
X287.02Y-79.528
X287.02Y-82.067
X287.02Y-84.608
X287.02Y-87.147
X304.8Y-38.887
X304.8Y-41.427
X304.8Y-43.968
X304.8Y-46.508
X304.8Y-49.047
X304.8Y-51.587
X304.8Y-54.127
X304.8Y-56.667
X304.8Y-59.207
X304.8Y-61.747
X304.8Y-64.287
X304.8Y-66.828
X304.8Y-69.367
X304.8Y-71.907
X304.8Y-74.447
X304.8Y-76.987
X304.8Y-79.528
X304.8Y-82.067
X304.8Y-84.608
X304.8Y-87.147
T4
X18.415Y-44.45
X18.415Y-63.5
X18.415Y-101.6
X18.415Y-120.65
X18.415Y-139.7
X23.495Y-82.55
X24.765Y-41.91
X24.765Y-60.96
X24.765Y-99.06
X24.765Y-118.11
X24.765Y-137.16
X29.845Y-80.01
X37.465Y-63.5
X37.465Y-101.6
X37.465Y-120.65
X37.465Y-139.7
X42.545Y-82.55
X43.815Y-60.96
X43.815Y-99.06
X43.815Y-118.11
X43.815Y-137.16
X48.895Y-80.01
X56.515Y-44.45
X56.515Y-63.5
X56.515Y-101.6
X56.515Y-120.65
X56.515Y-139.7
X61.595Y-82.55
X62.865Y-41.91
X62.865Y-60.96
X62.865Y-99.06
X62.865Y-118.11
X62.865Y-137.16
X67.945Y-80.01
X75.565Y-44.45
X75.565Y-63.5
X75.565Y-101.6
X75.565Y-120.65
X80.645Y-82.55
X81.915Y-41.91
X81.915Y-60.96
X81.915Y-99.06
X81.915Y-118.11
X86.995Y-80.01
X94.615Y-44.45
X94.615Y-63.5
X94.615Y-101.6
X94.615Y-120.65
X99.695Y-82.55
X100.965Y-41.91
X100.965Y-60.96
X100.965Y-99.06
X100.965Y-118.11
X106.045Y-80.01
X113.665Y-44.45
X113.665Y-63.5
X113.665Y-101.6
X113.665Y-120.65
X118.745Y-82.55
X120.015Y-41.91
X120.015Y-60.96
X120.015Y-99.06
X120.015Y-118.11
X125.095Y-80.01
X131.445Y-139.065
X132.715Y-63.5
X132.715Y-101.6
X132.715Y-120.65
X135.89Y-44.45
X137.795Y-82.55
X137.795Y-136.525
X139.065Y-60.96
X139.065Y-99.06
X139.065Y-118.11
X142.24Y-41.91
X144.145Y-80.01
X151.765Y-63.5
X151.765Y-101.6
X151.765Y-120.65
X154.94Y-44.45
X156.845Y-82.55
X158.115Y-60.96
X158.115Y-99.06
X158.115Y-118.11
X161.29Y-41.91
X163.195Y-80.01
X170.815Y-63.5
X170.815Y-101.6
X170.815Y-120.65
X173.99Y-44.45
X175.895Y-82.55
X177.165Y-60.96
X177.165Y-99.06
X177.165Y-118.11
X180.34Y-41.91
X182.245Y-80.01
X189.865Y-63.5
X189.865Y-101.6
X189.865Y-120.65
X193.04Y-44.45
X194.945Y-82.55
X196.215Y-60.96
X196.215Y-99.06
X196.215Y-118.11
X199.39Y-41.91
X201.295Y-80.01
X205.105Y-139.7
X208.915Y-63.5
X208.915Y-101.6
X208.915Y-120.65
X211.455Y-137.16
X213.995Y-44.45
X213.995Y-82.55
X215.265Y-60.96
X215.265Y-99.06
X215.265Y-118.11
X220.345Y-41.91
X220.345Y-80.01
X224.155Y-139.7
X227.965Y-63.5
X227.965Y-101.6
X227.965Y-120.65
X230.505Y-137.16
X233.045Y-44.45
X233.045Y-82.55
X234.315Y-60.96
X234.315Y-99.06
X234.315Y-118.11
X239.395Y-41.91
X239.395Y-80.01
X243.205Y-139.7
X247.015Y-63.5
X247.015Y-101.6
X249.555Y-137.16
X252.095Y-44.45
X252.095Y-82.55
X253.365Y-60.96
X253.365Y-99.06
X258.445Y-41.91
X258.445Y-80.01
X262.255Y-120.65
X262.255Y-139.7
X268.605Y-63.5
X268.605Y-118.11
X268.605Y-137.16
X271.145Y-44.45
X271.145Y-90.805
X274.955Y-60.96
X277.495Y-41.91
X277.495Y-88.265
X313.69Y-44.45
X313.69Y-63.5
X313.69Y-82.55
X314.96Y-139.7
X320.04Y-41.91
X320.04Y-60.96
X320.04Y-80.01
X321.31Y-137.16
X332.74Y-44.45
X332.74Y-63.5
X332.74Y-82.55
X334.01Y-120.65
X334.01Y-139.7
X339.09Y-41.91
X339.09Y-60.96
X339.09Y-80.01
X340.36Y-118.11
X340.36Y-137.16
X351.79Y-44.45
X351.79Y-63.5
X351.79Y-82.55
X353.06Y-139.7
X358.14Y-41.91
X358.14Y-60.96
X358.14Y-80.01
X359.41Y-137.16
T5
X85.249Y-134.62
X185.261Y-134.62
M30
